<svg width="15" height="15" viewBox="0 0 15 15" fill="none" xmlns="http://www.w3.org/2000/svg">
<path fill-rule="evenodd" clip-rule="evenodd" d="M15.0002 4.71971C15.0002 7.32668 12.8777 9.44016 10.2602 9.44016C9.78324 9.44016 8.69575 9.33066 8.16701 8.89117L7.50551 9.54966C7.11627 9.93741 7.22127 10.0514 7.39452 10.2389C7.46651 10.3177 7.55051 10.4084 7.61576 10.5382C7.61576 10.5382 8.16701 11.3061 7.61576 12.0749C7.28502 12.5136 6.35877 13.1279 5.30128 12.0749L5.08079 12.2939C5.08079 12.2939 5.74153 13.0626 5.19103 13.8314C4.86029 14.2701 3.9783 14.7089 3.20655 13.9409L2.43556 14.7089C1.90607 15.2361 1.25957 14.9286 1.00307 14.7089L0.340831 14.0504C-0.276413 13.4354 0.0835833 12.7694 0.340831 12.5129L6.07228 6.80544C6.07228 6.80544 5.52103 5.92794 5.52103 4.72046C5.52103 2.11348 7.64351 0 10.261 0C12.8785 0 15.0002 2.11348 15.0002 4.71971ZM10.261 6.36669C10.6985 6.36749 11.1183 6.19452 11.4283 5.88581C11.7383 5.5771 11.913 5.15793 11.914 4.72046C11.9136 4.50378 11.8705 4.2893 11.7872 4.08926C11.7039 3.88923 11.5821 3.70756 11.4286 3.55462C11.2751 3.40168 11.093 3.28048 10.8926 3.19792C10.6923 3.11536 10.4777 3.07308 10.261 3.07347C10.0443 3.07308 9.82967 3.11536 9.62934 3.19792C9.429 3.28048 9.24689 3.40168 9.09339 3.55462C8.9399 3.70756 8.81803 3.88923 8.73475 4.08926C8.65147 4.2893 8.6084 4.50378 8.608 4.72046C8.609 5.15793 8.78368 5.5771 9.09366 5.88581C9.40363 6.19452 9.82351 6.36749 10.261 6.36669Z" fill="#333333"/>
</svg>
