<svg width="9" height="12" viewBox="0 0 9 12" fill="none" xmlns="http://www.w3.org/2000/svg">
<path d="M0.675 0C0.495979 0 0.32429 0.0790219 0.197703 0.219682C0.0711158 0.360342 0 0.551118 0 0.750041V11.2506C0.000117349 11.3989 0.039769 11.5438 0.113947 11.667C0.188125 11.7902 0.293502 11.8862 0.416769 11.9429C0.540036 11.9997 0.675664 12.0145 0.806523 11.9856C0.937382 11.9567 1.0576 11.8854 1.152 11.7806L4.5 8.06044L7.848 11.7806C7.9424 11.8854 8.06262 11.9567 8.19348 11.9856C8.32434 12.0145 8.45996 11.9997 8.58323 11.9429C8.7065 11.8862 8.81187 11.7902 8.88605 11.667C8.96023 11.5438 8.99988 11.3989 9 11.2506V0.750041C9 0.551118 8.92888 0.360342 8.8023 0.219682C8.67571 0.0790219 8.50402 0 8.325 0H0.675Z" fill="#333333"/>
</svg>
