<?xml version="1.0" encoding="UTF-8"?>
<svg id="_レイヤー_2" data-name="レイヤー 2" xmlns="http://www.w3.org/2000/svg" viewBox="0 0 321.2 40">
  <defs>
    <style>
      .cls-1 {
        fill: #333;
      }

      .cls-1, .cls-2 {
        stroke-width: 0px;
      }

      .cls-2 {
        fill: #f9f6b6;
      }
    </style>
  </defs>
  <g id="_レイヤー_1-2" data-name="レイヤー 1">
    <g>
      <g>
        <g>
          <path class="cls-1" d="M9.44,35.4c-1,0-1.44-.44-1.44-1.44v-4.68c0-1,.44-1.44,1.44-1.44h10.76c.68,0,1.04-.52,1.04-1.16,0-.92-.36-1.28-1.04-1.36l-6-.84c-3.76-.56-6.2-2.16-6.2-6.64v-4.2c0-4.56,3.08-7.04,8.28-7.04h11.2c1,0,1.44.44,1.44,1.44v4.76c0,1-.44,1.44-1.44,1.44h-9.32c-.68,0-1.08.48-1.08,1.2s.4,1.2,1.08,1.28l5.96.8c3.76.56,6.24,2.16,6.24,6.64v4.2c0,4.56-3.12,7.04-8.28,7.04h-12.64Z"/>
          <path class="cls-1" d="M27.48,6.6c1,0,1.44.44,1.44,1.44v4.76c0,1-.44,1.44-1.44,1.44h-9.32c-.68,0-1.08.48-1.08,1.2s.4,1.2,1.08,1.28l5.96.8c3.76.56,6.24,2.16,6.24,6.64v4.2c0,4.56-3.12,7.04-8.28,7.04h-12.64c-1,0-1.44-.44-1.44-1.44v-4.68c0-1,.44-1.44,1.44-1.44h10.76c.68,0,1.04-.52,1.04-1.16,0-.92-.36-1.28-1.04-1.36l-6-.84c-3.76-.56-6.2-2.16-6.2-6.64v-4.2c0-4.56,3.08-7.04,8.28-7.04h11.2M27.48,2.6h-11.2c-7.46,0-12.28,4.33-12.28,11.04v4.2c0,2.27.49,4.86,2.22,6.93-1.38.95-2.22,2.54-2.22,4.5v4.68c0,3.2,2.24,5.44,5.44,5.44h12.64c7.46,0,12.28-4.33,12.28-11.04v-4.2c0-2.51-.61-5.41-2.83-7.57.88-.95,1.39-2.26,1.39-3.78v-4.76c0-3.2-2.24-5.44-5.44-5.44h0Z"/>
        </g>
        <g>
          <path class="cls-2" d="M5.44,33.4c-1,0-1.44-.44-1.44-1.44v-4.68c0-1,.44-1.44,1.44-1.44h10.76c.68,0,1.04-.52,1.04-1.16,0-.92-.36-1.28-1.04-1.36l-6-.84c-3.76-.56-6.2-2.16-6.2-6.64v-4.2c0-4.56,3.08-7.04,8.28-7.04h11.2c1,0,1.44.44,1.44,1.44v4.76c0,1-.44,1.44-1.44,1.44h-9.32c-.68,0-1.08.48-1.08,1.2s.4,1.2,1.08,1.28l5.96.8c3.76.56,6.24,2.16,6.24,6.64v4.2c0,4.56-3.12,7.04-8.28,7.04H5.44Z"/>
          <path class="cls-1" d="M23.48,4.6c1,0,1.44.44,1.44,1.44v4.76c0,1-.44,1.44-1.44,1.44h-9.32c-.68,0-1.08.48-1.08,1.2s.4,1.2,1.08,1.28l5.96.8c3.76.56,6.24,2.16,6.24,6.64v4.2c0,4.56-3.12,7.04-8.28,7.04H5.44c-1,0-1.44-.44-1.44-1.44v-4.68c0-1,.44-1.44,1.44-1.44h10.76c.68,0,1.04-.52,1.04-1.16,0-.92-.36-1.28-1.04-1.36l-6-.84c-3.76-.56-6.2-2.16-6.2-6.64v-4.2c0-4.56,3.08-7.04,8.28-7.04h11.2M23.48.6h-11.2C4.82.6,0,4.93,0,11.64v4.2c0,2.27.49,4.86,2.22,6.93-1.38.95-2.22,2.54-2.22,4.5v4.68c0,3.2,2.24,5.44,5.44,5.44h12.64c7.46,0,12.28-4.33,12.28-11.04v-4.2c0-2.51-.61-5.41-2.83-7.57.88-.95,1.39-2.26,1.39-3.78v-4.76c0-3.2-2.24-5.44-5.44-5.44h0Z"/>
        </g>
      </g>
      <g>
        <g>
          <path class="cls-1" d="M41.29,35.4c-1,0-1.44-.44-1.44-1.44V14.32h-5.88c-1,0-1.44-.44-1.44-1.44v-4.84c0-1,.44-1.44,1.44-1.44h21.12c1,0,1.44.44,1.44,1.44v4.84c0,1-.44,1.44-1.44,1.44h-5.88v19.64c0,1-.44,1.44-1.44,1.44h-6.48Z"/>
          <path class="cls-1" d="M55.08,6.6c1,0,1.44.44,1.44,1.44v4.84c0,1-.44,1.44-1.44,1.44h-5.88v19.64c0,1-.44,1.44-1.44,1.44h-6.48c-1,0-1.44-.44-1.44-1.44V14.32h-5.88c-1,0-1.44-.44-1.44-1.44v-4.84c0-1,.44-1.44,1.44-1.44h21.12M55.08,2.6h-21.12c-3.2,0-5.44,2.24-5.44,5.44v4.84c0,3.2,2.24,5.44,5.44,5.44h1.88v15.64c0,3.2,2.24,5.44,5.44,5.44h6.48c3.2,0,5.44-2.24,5.44-5.44v-15.64h1.88c3.2,0,5.44-2.24,5.44-5.44v-4.84c0-3.2-2.24-5.44-5.44-5.44h0Z"/>
        </g>
        <g>
          <path class="cls-2" d="M37.29,33.4c-1,0-1.44-.44-1.44-1.44V12.32h-5.88c-1,0-1.44-.44-1.44-1.44v-4.84c0-1,.44-1.44,1.44-1.44h21.12c1,0,1.44.44,1.44,1.44v4.84c0,1-.44,1.44-1.44,1.44h-5.88v19.64c0,1-.44,1.44-1.44,1.44h-6.48Z"/>
          <path class="cls-1" d="M51.08,4.6c1,0,1.44.44,1.44,1.44v4.84c0,1-.44,1.44-1.44,1.44h-5.88v19.64c0,1-.44,1.44-1.44,1.44h-6.48c-1,0-1.44-.44-1.44-1.44V12.32h-5.88c-1,0-1.44-.44-1.44-1.44v-4.84c0-1,.44-1.44,1.44-1.44h21.12M51.08.6h-21.12c-3.2,0-5.44,2.24-5.44,5.44v4.84c0,3.2,2.24,5.44,5.44,5.44h1.88v15.64c0,3.2,2.24,5.44,5.44,5.44h6.48c3.2,0,5.44-2.24,5.44-5.44v-15.64h1.88c3.2,0,5.44-2.24,5.44-5.44v-4.84c0-3.2-2.24-5.44-5.44-5.44h0Z"/>
        </g>
      </g>
      <g>
        <g>
          <path class="cls-1" d="M72.23,36c-10,0-12.44-3.28-12.44-8.16v-13.64c0-4.88,2.44-8.2,12.44-8.2s12.4,3.32,12.4,8.2v13.64c0,4.88-2.4,8.16-12.4,8.16ZM72.23,28.28c2.92,0,3.36-.8,3.36-1.88v-10.76c0-1.04-.44-1.84-3.36-1.84s-3.36.8-3.36,1.84v10.76c0,1.08.48,1.88,3.36,1.88Z"/>
          <path class="cls-1" d="M72.23,6c10,0,12.4,3.32,12.4,8.2v13.64c0,4.88-2.4,8.16-12.4,8.16s-12.44-3.28-12.44-8.16v-13.64c0-4.88,2.44-8.2,12.44-8.2M72.23,28.28c2.92,0,3.36-.8,3.36-1.88v-10.76c0-1.04-.44-1.84-3.36-1.84s-3.36.8-3.36,1.84v10.76c0,1.08.48,1.88,3.36,1.88M72.23,2c-5.73,0-9.68.99-12.42,3.11-2.67,2.07-4.02,5.12-4.02,9.09v13.64c0,12.16,12.37,12.16,16.44,12.16s16.4,0,16.4-12.16v-13.64c0-12.2-12.34-12.2-16.4-12.2h0Z"/>
        </g>
        <g>
          <path class="cls-2" d="M68.23,34c-10,0-12.44-3.28-12.44-8.16v-13.64c0-4.88,2.44-8.2,12.44-8.2s12.4,3.32,12.4,8.2v13.64c0,4.88-2.4,8.16-12.4,8.16ZM68.23,26.28c2.92,0,3.36-.8,3.36-1.88v-10.76c0-1.04-.44-1.84-3.36-1.84s-3.36.8-3.36,1.84v10.76c0,1.08.48,1.88,3.36,1.88Z"/>
          <path class="cls-1" d="M68.23,4c10,0,12.4,3.32,12.4,8.2v13.64c0,4.88-2.4,8.16-12.4,8.16s-12.44-3.28-12.44-8.16v-13.64c0-4.88,2.44-8.2,12.44-8.2M68.23,26.28c2.92,0,3.36-.8,3.36-1.88v-10.76c0-1.04-.44-1.84-3.36-1.84s-3.36.8-3.36,1.84v10.76c0,1.08.48,1.88,3.36,1.88M68.23,0c-5.73,0-9.68.99-12.42,3.11-2.67,2.07-4.02,5.12-4.02,9.09v13.64c0,12.16,12.37,12.16,16.44,12.16s16.4,0,16.4-12.16v-13.64c0-12.2-12.34-12.2-16.4-12.2h0Z"/>
        </g>
      </g>
      <g>
        <g>
          <path class="cls-1" d="M98.31,35.4c-6.72,0-9.84-2.6-9.84-8.16v-12.44c0-5.6,3.12-8.2,9.84-8.2h9.76c1,0,1.44.44,1.44,1.44v4.84c0,1-.44,1.44-1.44,1.44h-8.04c-1.68,0-2.44.64-2.44,2v9.52c0,1.32.76,1.92,2.44,1.92h8.04c1,0,1.44.44,1.44,1.44v4.76c0,1-.44,1.44-1.44,1.44h-9.76Z"/>
          <path class="cls-1" d="M108.06,6.6c1,0,1.44.44,1.44,1.44v4.84c0,1-.44,1.44-1.44,1.44h-8.04c-1.68,0-2.44.64-2.44,2v9.52c0,1.32.76,1.92,2.44,1.92h8.04c1,0,1.44.44,1.44,1.44v4.76c0,1-.44,1.44-1.44,1.44h-9.76c-6.72,0-9.84-2.6-9.84-8.16v-12.44c0-5.6,3.12-8.2,9.84-8.2h9.76M108.06,2.6h-9.76c-12.04,0-13.84,7.64-13.84,12.2v12.44c0,4.54,1.8,12.16,13.84,12.16h9.76c3.2,0,5.44-2.24,5.44-5.44v-4.76c0-3.2-2.24-5.44-5.44-5.44h-6.48v-5.44h6.48c3.2,0,5.44-2.24,5.44-5.44v-4.84c0-3.2-2.24-5.44-5.44-5.44h0ZM99.88,18.32h0,0Z"/>
        </g>
        <g>
          <path class="cls-2" d="M94.31,33.4c-6.72,0-9.84-2.6-9.84-8.16v-12.44c0-5.6,3.12-8.2,9.84-8.2h9.76c1,0,1.44.44,1.44,1.44v4.84c0,1-.44,1.44-1.44,1.44h-8.04c-1.68,0-2.44.64-2.44,2v9.52c0,1.32.76,1.92,2.44,1.92h8.04c1,0,1.44.44,1.44,1.44v4.76c0,1-.44,1.44-1.44,1.44h-9.76Z"/>
          <path class="cls-1" d="M104.06,4.6c1,0,1.44.44,1.44,1.44v4.84c0,1-.44,1.44-1.44,1.44h-8.04c-1.68,0-2.44.64-2.44,2v9.52c0,1.32.76,1.92,2.44,1.92h8.04c1,0,1.44.44,1.44,1.44v4.76c0,1-.44,1.44-1.44,1.44h-9.76c-6.72,0-9.84-2.6-9.84-8.16v-12.44c0-5.6,3.12-8.2,9.84-8.2h9.76M104.06.6h-9.76c-12.04,0-13.84,7.64-13.84,12.2v12.44c0,4.54,1.8,12.16,13.84,12.16h9.76c3.2,0,5.44-2.24,5.44-5.44v-4.76c0-3.2-2.24-5.44-5.44-5.44h-6.48v-5.44h6.48c3.2,0,5.44-2.24,5.44-5.44v-4.84c0-3.2-2.24-5.44-5.44-5.44h0ZM95.88,16.32h0,0Z"/>
        </g>
      </g>
      <g>
        <g>
          <path class="cls-1" d="M114.73,35.4c-1,0-1.44-.44-1.44-1.44V8.04c0-1,.44-1.44,1.44-1.44h6.2c1,0,1.44.44,1.44,1.44v9.2h1.6l4.12-9.32c.4-.96.96-1.32,2-1.32h6.16c.92,0,1.24.48.88,1.32l-4.08,9.32c3,.16,4.92,2.24,4.92,5.44v11.28c0,1-.44,1.44-1.44,1.44h-6.16c-1,0-1.44-.44-1.44-1.44v-7.8c0-.88-.44-1.36-1.28-1.36h-5.28v9.16c0,1-.44,1.44-1.44,1.44h-6.2Z"/>
          <path class="cls-1" d="M136.24,6.6c.92,0,1.24.48.88,1.32l-4.08,9.32c3,.16,4.92,2.24,4.92,5.44v11.28c0,1-.44,1.44-1.44,1.44h-6.16c-1,0-1.44-.44-1.44-1.44v-7.8c0-.88-.44-1.36-1.28-1.36h-5.28v9.16c0,1-.44,1.44-1.44,1.44h-6.2c-1,0-1.44-.44-1.44-1.44V8.04c0-1,.44-1.44,1.44-1.44h6.2c1,0,1.44.44,1.44,1.44v9.2h1.6l4.12-9.32c.4-.96.96-1.32,2-1.32h6.16M136.24,2.6h-6.16c-1.97,0-3.6.74-4.72,2.13-.95-1.33-2.52-2.13-4.44-2.13h-6.2c-3.2,0-5.44,2.24-5.44,5.44v25.92c0,3.2,2.24,5.44,5.44,5.44h6.2c2.12,0,3.81-.98,4.72-2.57.91,1.59,2.6,2.57,4.72,2.57h6.16c3.2,0,5.44-2.24,5.44-5.44v-11.28c0-3.25-1.35-5.97-3.59-7.64l2.41-5.51c.72-1.69.61-3.42-.28-4.78-.9-1.36-2.45-2.15-4.26-2.15h0Z"/>
        </g>
        <g>
          <path class="cls-2" d="M110.73,33.4c-1,0-1.44-.44-1.44-1.44V6.04c0-1,.44-1.44,1.44-1.44h6.2c1,0,1.44.44,1.44,1.44v9.2h1.6l4.12-9.32c.4-.96.96-1.32,2-1.32h6.16c.92,0,1.24.48.88,1.32l-4.08,9.32c3,.16,4.92,2.24,4.92,5.44v11.28c0,1-.44,1.44-1.44,1.44h-6.16c-1,0-1.44-.44-1.44-1.44v-7.8c0-.88-.44-1.36-1.28-1.36h-5.28v9.16c0,1-.44,1.44-1.44,1.44h-6.2Z"/>
          <path class="cls-1" d="M132.24,4.6c.92,0,1.24.48.88,1.32l-4.08,9.32c3,.16,4.92,2.24,4.92,5.44v11.28c0,1-.44,1.44-1.44,1.44h-6.16c-1,0-1.44-.44-1.44-1.44v-7.8c0-.88-.44-1.36-1.28-1.36h-5.28v9.16c0,1-.44,1.44-1.44,1.44h-6.2c-1,0-1.44-.44-1.44-1.44V6.04c0-1,.44-1.44,1.44-1.44h6.2c1,0,1.44.44,1.44,1.44v9.2h1.6l4.12-9.32c.4-.96.96-1.32,2-1.32h6.16M132.24.6h-6.16c-1.97,0-3.6.74-4.72,2.13-.95-1.33-2.52-2.13-4.44-2.13h-6.2c-3.2,0-5.44,2.24-5.44,5.44v25.92c0,3.2,2.24,5.44,5.44,5.44h6.2c2.12,0,3.81-.98,4.72-2.57.91,1.59,2.6,2.57,4.72,2.57h6.16c3.2,0,5.44-2.24,5.44-5.44v-11.28c0-3.25-1.35-5.97-3.59-7.64l2.41-5.51c.72-1.69.61-3.42-.28-4.78-.9-1.36-2.45-2.15-4.26-2.15h0Z"/>
        </g>
      </g>
      <g>
        <g>
          <path class="cls-1" d="M158.05,35.4h-5.88c-1,0-1.44-.44-1.44-1.44v-10.56c0-1.6.48-3.6,1.56-6.4l3.48-9.08c.32-.92.96-1.32,2.04-1.32h10.76c1.04,0,1.68.4,2,1.32l3.48,9.08c1.08,2.8,1.56,4.8,1.56,6.4v10.56c0,1-.44,1.44-1.44,1.44h-6.04c-1.08,0-1.56-.44-1.56-1.44v-5.6h-7.08v5.6c0,1-.44,1.44-1.44,1.44ZM159.88,21.08h6.28l-1.88-6.08c-.2-.48-.44-.68-.76-.68h-1c-.32,0-.56.2-.76.68l-1.88,6.08Z"/>
          <path class="cls-1" d="M168.56,6.6c1.04,0,1.68.4,2,1.32l3.48,9.08c1.08,2.8,1.56,4.8,1.56,6.4v10.56c0,1-.44,1.44-1.44,1.44h-6.04c-1.08,0-1.56-.44-1.56-1.44v-5.6h-7.08v5.6c0,1-.44,1.44-1.44,1.44h-5.88c-1,0-1.44-.44-1.44-1.44v-10.56c0-1.6.48-3.6,1.56-6.4l3.48-9.08c.32-.92.96-1.32,2.04-1.32h10.76M159.88,21.08h6.28l-1.88-6.08c-.2-.48-.44-.68-.76-.68h-1c-.32,0-.56.2-.76.68l-1.88,6.08M168.56,2.6h-10.76c-2.74,0-4.9,1.47-5.79,3.93l-3.46,9.03c-1.26,3.27-1.82,5.69-1.82,7.83v10.56c0,3.2,2.24,5.44,5.44,5.44h5.88c2.35,0,4.17-1.2,4.98-3.1.83,1.9,2.7,3.1,5.09,3.1h6.04c3.2,0,5.44-2.24,5.44-5.44v-10.56c0-2.14-.56-4.56-1.83-7.84l-3.46-9.02c-.89-2.46-3.03-3.93-5.75-3.93h0Z"/>
        </g>
        <g>
          <path class="cls-2" d="M154.05,33.4h-5.88c-1,0-1.44-.44-1.44-1.44v-10.56c0-1.6.48-3.6,1.56-6.4l3.48-9.08c.32-.92.96-1.32,2.04-1.32h10.76c1.04,0,1.68.4,2,1.32l3.48,9.08c1.08,2.8,1.56,4.8,1.56,6.4v10.56c0,1-.44,1.44-1.44,1.44h-6.04c-1.08,0-1.56-.44-1.56-1.44v-5.6h-7.08v5.6c0,1-.44,1.44-1.44,1.44ZM155.88,19.08h6.28l-1.88-6.08c-.2-.48-.44-.68-.76-.68h-1c-.32,0-.56.2-.76.68l-1.88,6.08Z"/>
          <path class="cls-1" d="M164.56,4.6c1.04,0,1.68.4,2,1.32l3.48,9.08c1.08,2.8,1.56,4.8,1.56,6.4v10.56c0,1-.44,1.44-1.44,1.44h-6.04c-1.08,0-1.56-.44-1.56-1.44v-5.6h-7.08v5.6c0,1-.44,1.44-1.44,1.44h-5.88c-1,0-1.44-.44-1.44-1.44v-10.56c0-1.6.48-3.6,1.56-6.4l3.48-9.08c.32-.92.96-1.32,2.04-1.32h10.76M155.88,19.08h6.28l-1.88-6.08c-.2-.48-.44-.68-.76-.68h-1c-.32,0-.56.2-.76.68l-1.88,6.08M164.56.6h-10.76c-2.74,0-4.9,1.47-5.79,3.93l-3.46,9.03c-1.26,3.27-1.82,5.69-1.82,7.83v10.56c0,3.2,2.24,5.44,5.44,5.44h5.88c2.35,0,4.17-1.2,4.98-3.1.83,1.9,2.7,3.1,5.09,3.1h6.04c3.2,0,5.44-2.24,5.44-5.44v-10.56c0-2.14-.56-4.56-1.83-7.84l-3.46-9.02c-.89-2.46-3.03-3.93-5.75-3.93h0Z"/>
        </g>
      </g>
      <g>
        <g>
          <path class="cls-1" d="M181.01,35.4c-1,0-1.44-.44-1.44-1.44V8.04c0-1,.44-1.44,1.44-1.44h4.16c1.04,0,1.68.28,2.36,1.08l7.76,8.88v-8.52c0-1,.44-1.44,1.44-1.44h6c1,0,1.44.44,1.44,1.44v25.92c0,1-.44,1.44-1.44,1.44h-6c-1,0-1.44-.44-1.44-1.44v-4.92l-6.84-8.28v13.2c0,1-.44,1.44-1.44,1.44h-6Z"/>
          <path class="cls-1" d="M202.73,6.6c1,0,1.44.44,1.44,1.44v25.92c0,1-.44,1.44-1.44,1.44h-6c-1,0-1.44-.44-1.44-1.44v-4.92l-6.84-8.28v13.2c0,1-.44,1.44-1.44,1.44h-6c-1,0-1.44-.44-1.44-1.44V8.04c0-1,.44-1.44,1.44-1.44h4.16c1.04,0,1.68.28,2.36,1.08l7.76,8.88v-8.52c0-1,.44-1.44,1.44-1.44h6M202.73,2.6h-6c-2.55,0-4.49,1.42-5.17,3.61l-1-1.15c-1.42-1.66-3.18-2.46-5.39-2.46h-4.16c-3.2,0-5.44,2.24-5.44,5.44v25.92c0,3.2,2.24,5.44,5.44,5.44h6c2.23,0,4-1.09,4.86-2.83.86,1.74,2.63,2.83,4.86,2.83h6c3.2,0,5.44-2.24,5.44-5.44V8.04c0-3.2-2.24-5.44-5.44-5.44h0Z"/>
        </g>
        <g>
          <path class="cls-2" d="M177.01,33.4c-1,0-1.44-.44-1.44-1.44V6.04c0-1,.44-1.44,1.44-1.44h4.16c1.04,0,1.68.28,2.36,1.08l7.76,8.88V6.04c0-1,.44-1.44,1.44-1.44h6c1,0,1.44.44,1.44,1.44v25.92c0,1-.44,1.44-1.44,1.44h-6c-1,0-1.44-.44-1.44-1.44v-4.92l-6.84-8.28v13.2c0,1-.44,1.44-1.44,1.44h-6Z"/>
          <path class="cls-1" d="M198.73,4.6c1,0,1.44.44,1.44,1.44v25.92c0,1-.44,1.44-1.44,1.44h-6c-1,0-1.44-.44-1.44-1.44v-4.92l-6.84-8.28v13.2c0,1-.44,1.44-1.44,1.44h-6c-1,0-1.44-.44-1.44-1.44V6.04c0-1,.44-1.44,1.44-1.44h4.16c1.04,0,1.68.28,2.36,1.08l7.76,8.88V6.04c0-1,.44-1.44,1.44-1.44h6M198.73.6h-6c-2.55,0-4.49,1.42-5.17,3.61l-1-1.15c-1.42-1.66-3.18-2.46-5.39-2.46h-4.16c-3.2,0-5.44,2.24-5.44,5.44v25.92c0,3.2,2.24,5.44,5.44,5.44h6c2.23,0,4-1.09,4.86-2.83.86,1.74,2.63,2.83,4.86,2.83h6c3.2,0,5.44-2.24,5.44-5.44V6.04c0-3.2-2.24-5.44-5.44-5.44h0Z"/>
        </g>
      </g>
      <g>
        <g>
          <path class="cls-1" d="M209.56,35.4c-1,0-1.44-.44-1.44-1.44v-4.68c0-1,.44-1.44,1.44-1.44h10.76c.68,0,1.04-.52,1.04-1.16,0-.92-.36-1.28-1.04-1.36l-6-.84c-3.76-.56-6.2-2.16-6.2-6.64v-4.2c0-4.56,3.08-7.04,8.28-7.04h11.2c1,0,1.44.44,1.44,1.44v4.76c0,1-.44,1.44-1.44,1.44h-9.32c-.68,0-1.08.48-1.08,1.2s.4,1.2,1.08,1.28l5.96.8c3.76.56,6.24,2.16,6.24,6.64v4.2c0,4.56-3.12,7.04-8.28,7.04h-12.64Z"/>
          <path class="cls-1" d="M227.6,6.6c1,0,1.44.44,1.44,1.44v4.76c0,1-.44,1.44-1.44,1.44h-9.32c-.68,0-1.08.48-1.08,1.2s.4,1.2,1.08,1.28l5.96.8c3.76.56,6.24,2.16,6.24,6.64v4.2c0,4.56-3.12,7.04-8.28,7.04h-12.64c-1,0-1.44-.44-1.44-1.44v-4.68c0-1,.44-1.44,1.44-1.44h10.76c.68,0,1.04-.52,1.04-1.16,0-.92-.36-1.28-1.04-1.36l-6-.84c-3.76-.56-6.2-2.16-6.2-6.64v-4.2c0-4.56,3.08-7.04,8.28-7.04h11.2M227.6,2.6h-11.2c-7.46,0-12.28,4.33-12.28,11.04v4.2c0,2.27.49,4.86,2.22,6.93-1.38.95-2.22,2.54-2.22,4.5v4.68c0,3.2,2.24,5.44,5.44,5.44h12.64c7.46,0,12.28-4.33,12.28-11.04v-4.2c0-2.51-.61-5.41-2.83-7.57.88-.95,1.39-2.26,1.39-3.78v-4.76c0-3.2-2.24-5.44-5.44-5.44h0Z"/>
        </g>
        <g>
          <path class="cls-2" d="M205.56,33.4c-1,0-1.44-.44-1.44-1.44v-4.68c0-1,.44-1.44,1.44-1.44h10.76c.68,0,1.04-.52,1.04-1.16,0-.92-.36-1.28-1.04-1.36l-6-.84c-3.76-.56-6.2-2.16-6.2-6.64v-4.2c0-4.56,3.08-7.04,8.28-7.04h11.2c1,0,1.44.44,1.44,1.44v4.76c0,1-.44,1.44-1.44,1.44h-9.32c-.68,0-1.08.48-1.08,1.2s.4,1.2,1.08,1.28l5.96.8c3.76.56,6.24,2.16,6.24,6.64v4.2c0,4.56-3.12,7.04-8.28,7.04h-12.64Z"/>
          <path class="cls-1" d="M223.6,4.6c1,0,1.44.44,1.44,1.44v4.76c0,1-.44,1.44-1.44,1.44h-9.32c-.68,0-1.08.48-1.08,1.2s.4,1.2,1.08,1.28l5.96.8c3.76.56,6.24,2.16,6.24,6.64v4.2c0,4.56-3.12,7.04-8.28,7.04h-12.64c-1,0-1.44-.44-1.44-1.44v-4.68c0-1,.44-1.44,1.44-1.44h10.76c.68,0,1.04-.52,1.04-1.16,0-.92-.36-1.28-1.04-1.36l-6-.84c-3.76-.56-6.2-2.16-6.2-6.64v-4.2c0-4.56,3.08-7.04,8.28-7.04h11.2M223.6.6h-11.2c-7.46,0-12.28,4.33-12.28,11.04v4.2c0,2.27.49,4.86,2.22,6.93-1.38.95-2.22,2.54-2.22,4.5v4.68c0,3.2,2.24,5.44,5.44,5.44h12.64c7.46,0,12.28-4.33,12.28-11.04v-4.2c0-2.51-.61-5.41-2.83-7.57.88-.95,1.39-2.26,1.39-3.78v-4.76c0-3.2-2.24-5.44-5.44-5.44h0Z"/>
        </g>
      </g>
      <g>
        <g>
          <path class="cls-1" d="M261.01,6.6c1,0,1.44.44,1.44,1.44v15.52c0,1.72,0,3-.72,4.96l-2,5.44c-.28.8-.76,1.44-1.6,1.44h-5.32c-.88,0-1.6-.36-1.84-1.2l-1.84-6.52c-.16-.52-.4-.68-.72-.68h-.36c-.32,0-.56.16-.72.68l-1.88,6.52c-.24.8-.84,1.2-1.68,1.2h-5.28c-.88,0-1.48-.6-1.76-1.44l-2-5.52c-.72-1.96-.72-3.24-.72-4.96v-15.44c0-1,.44-1.44,1.44-1.44h6.16c1,0,1.44.44,1.44,1.44v14.72l2.32-5.04c.44-.92,1.08-1.24,2.12-1.24h1.68c1.04,0,1.68.32,2.12,1.24l2.32,5.04v-14.72c0-1,.4-1.44,1.44-1.44h5.96Z"/>
          <path class="cls-1" d="M261.01,6.6c1,0,1.44.44,1.44,1.44v15.52c0,1.72,0,3-.72,4.96l-2,5.44c-.28.8-.76,1.44-1.6,1.44h-5.32c-.88,0-1.6-.36-1.84-1.2l-1.84-6.52c-.16-.52-.4-.68-.72-.68h-.36c-.32,0-.56.16-.72.68l-1.88,6.52c-.24.8-.84,1.2-1.68,1.2h-5.28c-.88,0-1.48-.6-1.76-1.44l-2-5.52c-.72-1.96-.72-3.24-.72-4.96v-15.44c0-1,.44-1.44,1.44-1.44h6.16c1,0,1.44.44,1.44,1.44v14.72l2.32-5.04c.44-.92,1.08-1.24,2.12-1.24h1.68c1.04,0,1.68.32,2.12,1.24l2.32,5.04v-14.72c0-1,.4-1.44,1.44-1.44h5.96M261.01,2.6h-5.96c-3.25,0-5.44,2.19-5.44,5.44v4.45c-.14,0-.29-.01-.44-.01h-1.68c-.15,0-.3,0-.44.01v-4.45c0-3.2-2.24-5.44-5.44-5.44h-6.16c-3.2,0-5.44,2.24-5.44,5.44v15.44c0,1.91,0,3.71.97,6.34l1.98,5.46c.86,2.5,3.03,4.12,5.53,4.12h5.28c1.8,0,3.39-.76,4.44-2.04,1.08,1.28,2.72,2.04,4.59,2.04h5.32c2.45,0,4.46-1.53,5.36-4.08l1.99-5.41c.97-2.63.97-4.43.97-6.34v-15.52c0-3.2-2.24-5.44-5.44-5.44h0Z"/>
        </g>
        <g>
          <path class="cls-2" d="M257.01,4.6c1,0,1.44.44,1.44,1.44v15.52c0,1.72,0,3-.72,4.96l-2,5.44c-.28.8-.76,1.44-1.6,1.44h-5.32c-.88,0-1.6-.36-1.84-1.2l-1.84-6.52c-.16-.52-.4-.68-.72-.68h-.36c-.32,0-.56.16-.72.68l-1.88,6.52c-.24.8-.84,1.2-1.68,1.2h-5.28c-.88,0-1.48-.6-1.76-1.44l-2-5.52c-.72-1.96-.72-3.24-.72-4.96V6.04c0-1,.44-1.44,1.44-1.44h6.16c1,0,1.44.44,1.44,1.44v14.72l2.32-5.04c.44-.92,1.08-1.24,2.12-1.24h1.68c1.04,0,1.68.32,2.12,1.24l2.32,5.04V6.04c0-1,.4-1.44,1.44-1.44h5.96Z"/>
          <path class="cls-1" d="M257.01,4.6c1,0,1.44.44,1.44,1.44v15.52c0,1.72,0,3-.72,4.96l-2,5.44c-.28.8-.76,1.44-1.6,1.44h-5.32c-.88,0-1.6-.36-1.84-1.2l-1.84-6.52c-.16-.52-.4-.68-.72-.68h-.36c-.32,0-.56.16-.72.68l-1.88,6.52c-.24.8-.84,1.2-1.68,1.2h-5.28c-.88,0-1.48-.6-1.76-1.44l-2-5.52c-.72-1.96-.72-3.24-.72-4.96V6.04c0-1,.44-1.44,1.44-1.44h6.16c1,0,1.44.44,1.44,1.44v14.72l2.32-5.04c.44-.92,1.08-1.24,2.12-1.24h1.68c1.04,0,1.68.32,2.12,1.24l2.32,5.04V6.04c0-1,.4-1.44,1.44-1.44h5.96M257.01.6h-5.96c-3.25,0-5.44,2.19-5.44,5.44v4.45c-.14,0-.29-.01-.44-.01h-1.68c-.15,0-.3,0-.44.01v-4.45c0-3.2-2.24-5.44-5.44-5.44h-6.16c-3.2,0-5.44,2.24-5.44,5.44v15.44c0,1.91,0,3.71.97,6.34l1.98,5.46c.86,2.5,3.03,4.12,5.53,4.12h5.28c1.8,0,3.39-.76,4.44-2.04,1.08,1.28,2.72,2.04,4.59,2.04h5.32c2.45,0,4.46-1.53,5.36-4.08l1.99-5.41c.97-2.63.97-4.43.97-6.34V6.04c0-3.2-2.24-5.44-5.44-5.44h0Z"/>
        </g>
      </g>
      <g>
        <g>
          <path class="cls-1" d="M268.09,35.4c-1,0-1.44-.44-1.44-1.44V8.04c0-1,.44-1.44,1.44-1.44h18.56c1,0,1.44.44,1.44,1.44v4.68c0,1-.44,1.44-1.44,1.44h-11.04v3.08h7.8c1,0,1.44.44,1.44,1.44v4.28c0,1-.44,1.44-1.44,1.44h-7.8v3.44h11.04c1,0,1.44.44,1.44,1.44v4.68c0,1-.44,1.44-1.44,1.44h-18.56Z"/>
          <path class="cls-1" d="M286.65,6.6c1,0,1.44.44,1.44,1.44v4.68c0,1-.44,1.44-1.44,1.44h-11.04v3.08h7.8c1,0,1.44.44,1.44,1.44v4.28c0,1-.44,1.44-1.44,1.44h-7.8v3.44h11.04c1,0,1.44.44,1.44,1.44v4.68c0,1-.44,1.44-1.44,1.44h-18.56c-1,0-1.44-.44-1.44-1.44V8.04c0-1,.44-1.44,1.44-1.44h18.56M286.65,2.6h-18.56c-3.2,0-5.44,2.24-5.44,5.44v25.92c0,3.2,2.24,5.44,5.44,5.44h18.56c3.2,0,5.44-2.24,5.44-5.44v-4.68c0-2.45-1.31-4.33-3.36-5.08.08-.39.12-.8.12-1.23v-4.28c0-.31-.02-.61-.06-.89,2.02-.76,3.3-2.64,3.3-5.06v-4.68c0-3.2-2.24-5.44-5.44-5.44h0Z"/>
        </g>
        <g>
          <path class="cls-2" d="M264.09,33.4c-1,0-1.44-.44-1.44-1.44V6.04c0-1,.44-1.44,1.44-1.44h18.56c1,0,1.44.44,1.44,1.44v4.68c0,1-.44,1.44-1.44,1.44h-11.04v3.08h7.8c1,0,1.44.44,1.44,1.44v4.28c0,1-.44,1.44-1.44,1.44h-7.8v3.44h11.04c1,0,1.44.44,1.44,1.44v4.68c0,1-.44,1.44-1.44,1.44h-18.56Z"/>
          <path class="cls-1" d="M282.65,4.6c1,0,1.44.44,1.44,1.44v4.68c0,1-.44,1.44-1.44,1.44h-11.04v3.08h7.8c1,0,1.44.44,1.44,1.44v4.28c0,1-.44,1.44-1.44,1.44h-7.8v3.44h11.04c1,0,1.44.44,1.44,1.44v4.68c0,1-.44,1.44-1.44,1.44h-18.56c-1,0-1.44-.44-1.44-1.44V6.04c0-1,.44-1.44,1.44-1.44h18.56M282.65.6h-18.56c-3.2,0-5.44,2.24-5.44,5.44v25.92c0,3.2,2.24,5.44,5.44,5.44h18.56c3.2,0,5.44-2.24,5.44-5.44v-4.68c0-2.45-1.31-4.33-3.36-5.08.08-.39.12-.8.12-1.23v-4.28c0-.31-.02-.61-.06-.89,2.02-.76,3.3-2.64,3.3-5.06v-4.68c0-3.2-2.24-5.44-5.44-5.44h0Z"/>
        </g>
      </g>
      <g>
        <g>
          <path class="cls-1" d="M293.4,35.4c-1,0-1.44-.44-1.44-1.44V8.04c0-1,.44-1.44,1.44-1.44h13.32c6,0,7.88,2.72,7.88,6.68v1.84c0,2.24-.56,3.84-2.24,4.56,2.92.32,4.84,2.44,4.84,5.8v8.48c0,1-.44,1.44-1.44,1.44h-6.2c-1,0-1.44-.44-1.44-1.44v-6.12c0-1.2-.4-1.72-1.52-1.72h-5.6v7.84c0,1-.44,1.44-1.44,1.44h-6.16ZM301,18.92h3c1.4,0,1.76-.8,1.76-1.88v-1.36c0-1.08-.36-1.88-1.76-1.88h-3v5.12Z"/>
          <path class="cls-1" d="M306.72,6.6c6,0,7.88,2.72,7.88,6.68v1.84c0,2.24-.56,3.84-2.24,4.56,2.92.32,4.84,2.44,4.84,5.8v8.48c0,1-.44,1.44-1.44,1.44h-6.2c-1,0-1.44-.44-1.44-1.44v-6.12c0-1.2-.4-1.72-1.52-1.72h-5.6v7.84c0,1-.44,1.44-1.44,1.44h-6.16c-1,0-1.44-.44-1.44-1.44V8.04c0-1,.44-1.44,1.44-1.44h13.32M301,18.92h3c1.4,0,1.76-.8,1.76-1.88v-1.36c0-1.08-.36-1.88-1.76-1.88h-3v5.12M306.72,2.6h-13.32c-3.2,0-5.44,2.24-5.44,5.44v25.92c0,3.2,2.24,5.44,5.44,5.44h6.16c2.36,0,4.2-1.22,5-3.14.8,1.92,2.64,3.14,5,3.14h6.2c3.2,0,5.44-2.24,5.44-5.44v-8.48c0-3.01-1.09-5.57-2.95-7.33.22-.87.35-1.88.35-3.03v-1.84c0-6.79-4.33-10.68-11.88-10.68h0Z"/>
        </g>
        <g>
          <path class="cls-2" d="M289.4,33.4c-1,0-1.44-.44-1.44-1.44V6.04c0-1,.44-1.44,1.44-1.44h13.32c6,0,7.88,2.72,7.88,6.68v1.84c0,2.24-.56,3.84-2.24,4.56,2.92.32,4.84,2.44,4.84,5.8v8.48c0,1-.44,1.44-1.44,1.44h-6.2c-1,0-1.44-.44-1.44-1.44v-6.12c0-1.2-.4-1.72-1.52-1.72h-5.6v7.84c0,1-.44,1.44-1.44,1.44h-6.16ZM297,16.92h3c1.4,0,1.76-.8,1.76-1.88v-1.36c0-1.08-.36-1.88-1.76-1.88h-3v5.12Z"/>
          <path class="cls-1" d="M302.72,4.6c6,0,7.88,2.72,7.88,6.68v1.84c0,2.24-.56,3.84-2.24,4.56,2.92.32,4.84,2.44,4.84,5.8v8.48c0,1-.44,1.44-1.44,1.44h-6.2c-1,0-1.44-.44-1.44-1.44v-6.12c0-1.2-.4-1.72-1.52-1.72h-5.6v7.84c0,1-.44,1.44-1.44,1.44h-6.16c-1,0-1.44-.44-1.44-1.44V6.04c0-1,.44-1.44,1.44-1.44h13.32M297,16.92h3c1.4,0,1.76-.8,1.76-1.88v-1.36c0-1.08-.36-1.88-1.76-1.88h-3v5.12M302.72.6h-13.32c-3.2,0-5.44,2.24-5.44,5.44v25.92c0,3.2,2.24,5.44,5.44,5.44h6.16c2.36,0,4.2-1.22,5-3.14.8,1.92,2.64,3.14,5,3.14h6.2c3.2,0,5.44-2.24,5.44-5.44v-8.48c0-3.01-1.09-5.57-2.95-7.33.22-.87.35-1.88.35-3.03v-1.84c0-6.79-4.33-10.68-11.88-10.68h0Z"/>
        </g>
      </g>
    </g>
  </g>
</svg>