<svg width="15" height="13" viewBox="0 0 15 13" fill="none" xmlns="http://www.w3.org/2000/svg">
<path d="M15 2.69268V9.90234C15 10.4852 14.7808 11.0461 14.387 11.4702C13.9933 11.8942 13.4549 12.1495 12.882 12.1837L12.75 12.1875H2.25C1.67609 12.1875 1.12386 11.9648 0.706304 11.565C0.288745 11.1651 0.0374194 10.6183 0.00375009 10.0364L0 9.90234V2.69268L7.08375 7.48922L7.17075 7.53949C7.27328 7.59037 7.38589 7.61682 7.5 7.61682C7.61411 7.61682 7.72672 7.59037 7.82925 7.53949L7.91625 7.48922L15 2.69268Z" fill="#333333"/>
<path d="M12.75 0C13.56 0 14.2703 0.43418 14.6663 1.08697L7.5 5.93912L0.33375 1.08697C0.521797 0.776776 0.78016 0.516751 1.08728 0.328592C1.3944 0.140434 1.74137 0.0295975 2.09925 0.00533201L2.25 0H12.75Z" fill="#333333"/>
</svg>
