<svg width="19" height="18" viewBox="0 0 19 18" fill="none" xmlns="http://www.w3.org/2000/svg">
<path d="M1.00316 8.23074C0.993061 8.11446 1.00724 7.99736 1.04481 7.88686C1.08237 7.77636 1.14249 7.67488 1.22136 7.58885C1.30022 7.50282 1.39611 7.43412 1.50293 7.38711C1.60976 7.34011 1.72518 7.31582 1.84189 7.31579H3.44989C3.67323 7.31579 3.88743 7.40451 4.04535 7.56243C4.20328 7.72036 4.292 7.93455 4.292 8.15789V16.1579C4.292 16.3812 4.20328 16.5954 4.04535 16.7534C3.88743 16.9113 3.67323 17 3.44989 17H2.53789C2.32713 17.0001 2.124 16.9211 1.96864 16.7786C1.81327 16.6362 1.71697 16.4407 1.69874 16.2307L1.00316 8.23074ZM6.81832 7.89473C6.81832 7.54273 7.03726 7.22779 7.35516 7.07789C8.04947 6.75031 9.23221 6.09221 9.76568 5.20252C10.4533 4.05558 10.5829 1.98358 10.604 1.50905C10.6069 1.44252 10.6053 1.376 10.6141 1.31031C10.7282 0.487998 12.3152 1.44842 12.9236 2.464C13.2541 3.01473 13.2962 3.73852 13.2617 4.304C13.2242 4.90863 13.0469 5.49263 12.8731 6.07284L12.5025 7.30947H17.0739C17.204 7.30946 17.3323 7.3396 17.4488 7.39753C17.5654 7.45545 17.6668 7.53958 17.7454 7.64332C17.8239 7.74706 17.8773 7.86758 17.9015 7.99543C17.9256 8.12328 17.9197 8.25499 17.8844 8.38021L15.6234 16.3869C15.5735 16.5635 15.4672 16.719 15.3208 16.8296C15.1745 16.9403 14.9959 17.0001 14.8124 17H7.66042C7.43708 17 7.22289 16.9113 7.06496 16.7534C6.90704 16.5954 6.81832 16.3812 6.81832 16.1579V7.89473Z" stroke="#333333" stroke-width="1.68421" stroke-linecap="round" stroke-linejoin="round"/>
</svg>
