<svg width="13" height="13" viewBox="0 0 13 13" fill="none" xmlns="http://www.w3.org/2000/svg">
<path d="M6.5 12.75C9.9518 12.75 12.75 9.9518 12.75 6.5C12.75 3.04822 9.9518 0.25 6.5 0.25C3.04822 0.25 0.25 3.04822 0.25 6.5C0.25 9.9518 3.04822 12.75 6.5 12.75Z" fill="#333333"/>
<path fill-rule="evenodd" clip-rule="evenodd" d="M6.5 1.8125C6.74509 1.8125 6.96756 1.95575 7.06898 2.17887L10.194 9.05387C10.3368 9.36811 10.1979 9.73864 9.88363 9.88148C9.56939 10.0243 9.19886 9.88537 9.05602 9.57113L8.22824 7.75H4.77176L3.94398 9.57113C3.80114 9.88537 3.43061 10.0243 3.11637 9.88148C2.80213 9.73864 2.66319 9.36811 2.80602 9.05387L5.93102 2.17887C6.03244 1.95575 6.25491 1.8125 6.5 1.8125ZM5.33995 6.5H7.66005L6.5 3.94788L5.33995 6.5Z" fill="white"/>
</svg>
