<svg width="15" height="15" viewBox="0 0 15 15" fill="none" xmlns="http://www.w3.org/2000/svg">
<g clip-path="url(#clip0_376_1564)">
<path d="M7.48712 4.95435C6.92415 4.95435 6.47509 5.15427 6.13993 5.55411C5.80478 5.95396 5.63696 6.55231 5.63696 7.34896C5.63696 8.28083 5.8772 8.94833 6.35696 9.35122C6.66774 9.61255 7.0404 9.74333 7.47399 9.74333C7.63297 9.7439 7.79133 9.72373 7.94509 9.68333C8.05384 9.65234 8.16028 9.61373 8.2636 9.56778L7.57501 8.91294L8.30462 8.15075L8.99579 8.80138C9.10337 8.58013 9.17884 8.3863 9.22196 8.22036C9.2897 7.97122 9.32321 7.6806 9.32321 7.34849C9.32321 6.58583 9.16712 5.99591 8.85493 5.57919C8.54274 5.16247 8.08688 4.95435 7.48712 4.95435Z" fill="#333333"/>
<path d="M7.5 0.46875C3.61687 0.46875 0.46875 3.61687 0.46875 7.5C0.46875 11.3831 3.61687 14.5312 7.5 14.5312C11.3831 14.5312 14.5312 11.3831 14.5312 7.5C14.5312 3.61687 11.3831 0.46875 7.5 0.46875ZM10.0343 11.25L9.21727 10.4749C8.96789 10.6263 8.75273 10.7327 8.57086 10.7944C8.26594 10.8966 7.90125 10.9472 7.47633 10.9472C6.58969 10.9472 5.85727 10.6828 5.27859 10.1536C4.57641 9.51703 4.22531 8.58187 4.22531 7.34859C4.22531 6.1057 4.58508 5.16609 5.30508 4.52953C5.89242 4.00992 6.62297 3.75 7.49625 3.75C8.37609 3.75 9.11437 4.02539 9.71086 4.57594C10.3997 5.2125 10.7445 6.10312 10.7445 7.24711C10.7445 7.85297 10.6709 8.36063 10.523 8.76961C10.4034 9.15961 10.2272 9.48352 9.99422 9.74133L10.7747 10.4766L10.0343 11.25Z" fill="#333333"/>
</g>
<defs>
<clipPath id="clip0_376_1564">
<rect width="15" height="15" fill="white"/>
</clipPath>
</defs>
</svg>
