<svg width="24" height="26" viewBox="0 0 24 26" fill="none" xmlns="http://www.w3.org/2000/svg">
<path d="M19.0031 8.68134C19.0031 6.64412 18.2445 4.69035 16.8939 3.24982C15.5434 1.80928 13.7118 1 11.8019 1C9.892 1 8.06033 1.80928 6.70983 3.24982C5.35933 4.69035 4.60063 6.64412 4.60063 8.68134C4.60063 17.643 1 20.2034 1 20.2034H22.6038C22.6038 20.2034 19.0031 17.643 19.0031 8.68134Z" fill="#F5E9E1" stroke="#333333" stroke-width="2" stroke-linecap="round" stroke-linejoin="round"/>
<path d="M13.8783 23.804C13.6673 24.1677 13.3645 24.4697 13 24.6795C12.6356 24.8894 12.2225 25 11.8019 25C11.3814 25 10.9683 24.8894 10.6039 24.6795C10.2395 24.4697 9.93658 24.1677 9.72559 23.804" stroke="#333333" stroke-width="2" stroke-linecap="round" stroke-linejoin="round"/>
</svg>
