<svg width="15" height="18" viewBox="0 0 15 18" fill="none" xmlns="http://www.w3.org/2000/svg">
<path d="M1.975 1C1.71641 1 1.46842 1.10536 1.28557 1.29291C1.10272 1.48046 1 1.73482 1 2.00005V16.0008C1.00017 16.1985 1.05744 16.3917 1.16459 16.556C1.27174 16.7203 1.42395 16.8483 1.602 16.9239C1.78005 16.9995 1.97596 17.0193 2.16498 16.9808C2.354 16.9423 2.52765 16.8472 2.664 16.7075L7.5 11.7473L12.336 16.7075C12.4724 16.8472 12.646 16.9423 12.835 16.9808C13.024 17.0193 13.2199 16.9995 13.398 16.9239C13.5761 16.8483 13.7283 16.7203 13.8354 16.556C13.9426 16.3917 13.9998 16.1985 14 16.0008V2.00005C14 1.73482 13.8973 1.48046 13.7144 1.29291C13.5316 1.10536 13.2836 1 13.025 1H1.975Z" fill="white" stroke="#333333" stroke-width="2"/>
</svg>
