<svg width="16" height="15" viewBox="0 0 16 15" fill="none" xmlns="http://www.w3.org/2000/svg">
<path d="M15.6692 14.7C15.616 14.7913 15.5395 14.867 15.4474 14.9197C15.3553 14.9723 15.2508 15 15.1444 15H0.605181C0.498894 14.9999 0.394505 14.9721 0.302498 14.9194C0.210491 14.8667 0.134104 14.791 0.0810069 14.6998C0.0279101 14.6086 -2.72673e-05 14.5052 1.99701e-08 14.3999C2.73073e-05 14.2947 0.0280183 14.1913 0.0811623 14.1001C1.23446 12.1256 3.01173 10.7098 5.08585 10.0387C4.0599 9.43385 3.2628 8.51224 2.81696 7.41538C2.37112 6.31851 2.30119 5.10705 2.61791 3.96702C2.93464 2.82699 3.6205 1.82144 4.57018 1.10478C5.51985 0.388129 6.68083 0 7.87481 0C9.0688 0 10.2298 0.388129 11.1794 1.10478C12.1291 1.82144 12.815 2.82699 13.1317 3.96702C13.4484 5.10705 13.3785 6.31851 12.9327 7.41538C12.4868 8.51224 11.6897 9.43385 10.6638 10.0387C12.7379 10.7098 14.5152 12.1256 15.6685 14.1001C15.7217 14.1913 15.7499 14.2947 15.75 14.4C15.7501 14.5053 15.7223 14.6088 15.6692 14.7Z" fill="#333333"/>
</svg>
