<svg width="21" height="20" viewBox="0 0 21 20" fill="none" xmlns="http://www.w3.org/2000/svg">
<path fill-rule="evenodd" clip-rule="evenodd" d="M8.14699 2.18364C9.17974 0.347641 11.8217 0.347641 12.8531 2.18364L20.3861 15.5756C21.3986 17.3765 20.0985 19.5986 18.0344 19.5986H2.96704C0.90154 19.5986 -0.398511 17.3765 0.613989 15.5756L8.14699 2.18364ZM11.85 15.55C11.85 15.908 11.7078 16.2514 11.4546 16.5046C11.2015 16.7578 10.8581 16.9 10.5 16.9C10.142 16.9 9.79862 16.7578 9.54545 16.5046C9.29227 16.2514 9.15004 15.908 9.15004 15.55C9.15004 15.1919 9.29227 14.8486 9.54545 14.5954C9.79862 14.3422 10.142 14.2 10.5 14.2C10.8581 14.2 11.2015 14.3422 11.4546 14.5954C11.7078 14.8486 11.85 15.1919 11.85 15.55ZM10.5 4.74999C10.142 4.74999 9.79862 4.89222 9.54545 5.1454C9.29227 5.39857 9.15004 5.74195 9.15004 6.09999V10.15C9.15004 10.508 9.29227 10.8514 9.54545 11.1046C9.79862 11.3578 10.142 11.5 10.5 11.5C10.8581 11.5 11.2015 11.3578 11.4546 11.1046C11.7078 10.8514 11.85 10.508 11.85 10.15V6.09999C11.85 5.74195 11.7078 5.39857 11.4546 5.1454C11.2015 4.89222 10.8581 4.74999 10.5 4.74999Z" fill="#E9421E"/>
</svg>
