<svg width="25" height="25" viewBox="0 0 25 25" fill="none" xmlns="http://www.w3.org/2000/svg">
<circle cx="12.4717" cy="12.4717" r="12.4717" fill="white"/>
<path d="M18.6527 6.28991C18.9443 6.01688 19.3323 5.86594 19.7349 5.86894C20.1375 5.87194 20.5231 6.02863 20.8105 6.30597C21.0978 6.5833 21.2644 6.95958 21.275 7.3554C21.2856 7.75122 21.1395 8.13563 20.8675 8.42751L12.6086 18.5862C12.4666 18.7367 12.2952 18.8574 12.1047 18.9412C11.9141 19.025 11.7084 19.0701 11.4997 19.0739C11.291 19.0777 11.0837 19.0401 10.8901 18.9633C10.6965 18.8865 10.5207 18.7721 10.3731 18.6269L4.8962 13.2402C4.74368 13.1004 4.62134 12.9318 4.53649 12.7445C4.45164 12.5572 4.40602 12.355 4.40234 12.15C4.39866 11.945 4.43701 11.7414 4.51509 11.5513C4.59316 11.3611 4.70938 11.1884 4.85679 11.0434C5.00421 10.8985 5.1798 10.7842 5.37311 10.7074C5.56641 10.6306 5.77346 10.5929 5.98191 10.5965C6.19035 10.6001 6.39592 10.645 6.58635 10.7284C6.77677 10.8119 6.94816 10.9322 7.09029 11.0822L11.4246 15.3432L18.6134 6.3347L18.6527 6.28991Z" fill="#E9421E"/>
</svg>
