<svg width="26" height="26" viewBox="0 0 26 26" fill="none" xmlns="http://www.w3.org/2000/svg">
<path fill-rule="evenodd" clip-rule="evenodd" d="M20.8296 7.89376L22.1469 11.0745L25 11.8L24.9999 14.1726L22.1367 14.9176L20.8191 18.0993L22.6 20.2L20.2 22.6C20.2 22.6 18.6363 21.1976 18.1061 20.8186L14.9254 22.1358L14.2 25H11.8L11.0764 22.1348L7.94939 20.8484L5.8 22.6L3.4 20.2L5.2189 18.1596L3.88133 14.9866L1 14.2V11.8L3.847 11.1356L5.14404 7.94662L3.4 5.8L5.8 3.4L7.84529 5.21915L11.0189 3.88136L11.7772 1H14.1224L14.8694 3.84369L18.1176 5.17954L20.2 3.4L22.6 5.8L20.8296 7.89376ZM16.5999 12.9999C16.5999 14.9882 14.9882 16.5999 12.9999 16.5999C11.0116 16.5999 9.3999 14.9882 9.3999 12.9999C9.3999 11.0116 11.0116 9.3999 12.9999 9.3999C14.9882 9.3999 16.5999 11.0116 16.5999 12.9999Z" fill="#F5E9E1"/>
<path d="M22.1469 11.0745L21.223 11.4571C21.3437 11.7485 21.5948 11.9659 21.9004 12.0436L22.1469 11.0745ZM20.8296 7.89376L20.066 7.24809C19.8244 7.53386 19.7625 7.93063 19.9057 8.27638L20.8296 7.89376ZM25 11.8L26 11.8C26 11.3427 25.6897 10.9436 25.2464 10.8308L25 11.8ZM24.9999 14.1726L25.2517 15.1404C25.6923 15.0258 25.9999 14.628 25.9999 14.1727L24.9999 14.1726ZM22.1367 14.9176L21.8849 13.9498C21.5815 14.0288 21.3327 14.2454 21.2128 14.535L22.1367 14.9176ZM20.8191 18.0993L19.8952 17.7167C19.7518 18.0629 19.814 18.4601 20.0563 18.7459L20.8191 18.0993ZM22.6 20.2L23.3071 20.9071C23.6751 20.5391 23.6993 19.9503 23.3628 19.5533L22.6 20.2ZM20.2 22.6L19.5323 23.3445C19.9278 23.6991 20.5315 23.6827 20.9071 23.3071L20.2 22.6ZM18.1061 20.8186L18.6876 20.0051C18.4068 19.8044 18.0424 19.7626 17.7235 19.8947L18.1061 20.8186ZM14.9254 22.1358L14.5428 21.2119C14.2511 21.3327 14.0335 21.5842 13.956 21.8903L14.9254 22.1358ZM14.2 25V26C14.6577 26 15.057 25.6892 15.1694 25.2455L14.2 25ZM11.8 25L10.8304 25.2449C10.9426 25.6889 11.342 26 11.8 26V25ZM11.0764 22.1348L12.046 21.8899C11.9684 21.5827 11.7498 21.3305 11.4568 21.21L11.0764 22.1348ZM7.94939 20.8484L8.32984 19.9236C7.99055 19.784 7.60206 19.8414 7.31766 20.0732L7.94939 20.8484ZM5.8 22.6L5.09289 23.3071C5.45565 23.6699 6.03406 23.6993 6.43173 23.3752L5.8 22.6ZM3.4 20.2L2.65354 19.5346C2.30084 19.9302 2.31811 20.5323 2.69289 20.9071L3.4 20.2ZM5.2189 18.1596L5.96536 18.8251C6.22217 18.537 6.29029 18.1268 6.14037 17.7712L5.2189 18.1596ZM3.88133 14.9866L4.80281 14.5982C4.68354 14.3152 4.4409 14.1028 4.14469 14.0219L3.88133 14.9866ZM1 14.2H0C0 14.6509 0.301698 15.046 0.736639 15.1647L1 14.2ZM1 11.8L0.772725 10.8262C0.320158 10.9318 0 11.3353 0 11.8H1ZM3.847 11.1356L4.07428 12.1094C4.39038 12.0356 4.65101 11.813 4.77331 11.5123L3.847 11.1356ZM5.14404 7.94662L6.07035 8.32338C6.20784 7.98535 6.15028 7.59927 5.92017 7.31605L5.14404 7.94662ZM3.4 5.8L2.69289 5.09289C2.33055 5.45524 2.30074 6.03286 2.62387 6.43057L3.4 5.8ZM5.8 3.4L6.46459 2.65279C6.06888 2.30083 5.46737 2.31841 5.09289 2.69289L5.8 3.4ZM7.84529 5.21915L7.1807 5.96636C7.46877 6.22258 7.87847 6.29038 8.23373 6.14063L7.84529 5.21915ZM11.0189 3.88136L11.4074 4.80283C11.6933 4.68231 11.907 4.43591 11.986 4.13586L11.0189 3.88136ZM11.7772 1V0C11.3229 0 10.9257 0.306189 10.8101 0.745498L11.7772 1ZM14.1224 1L15.0895 0.745932C14.9741 0.30641 14.5768 0 14.1224 0V1ZM14.8694 3.84369L13.9022 4.09776C13.9818 4.40098 14.1991 4.64929 14.489 4.76853L14.8694 3.84369ZM18.1176 5.17954L17.7373 6.10439C18.0843 6.2471 18.482 6.18353 18.7673 5.93976L18.1176 5.17954ZM20.2 3.4L20.9071 2.69289C20.538 2.32381 19.9471 2.30068 19.5503 2.63978L20.2 3.4ZM22.6 5.8L23.3636 6.44567C23.6993 6.04863 23.6748 5.46055 23.3071 5.09289L22.6 5.8ZM23.0708 10.6919L21.7535 7.51114L19.9057 8.27638L21.223 11.4571L23.0708 10.6919ZM25.2464 10.8308L22.3933 10.1053L21.9004 12.0436L24.7536 12.7692L25.2464 10.8308ZM25.9999 14.1727L26 11.8L24 11.8L23.9999 14.1726L25.9999 14.1727ZM22.3885 15.8854L25.2517 15.1404L24.7481 13.2049L21.8849 13.9498L22.3885 15.8854ZM21.743 18.4819L23.0606 15.3002L21.2128 14.535L19.8952 17.7167L21.743 18.4819ZM23.3628 19.5533L21.5819 17.4526L20.0563 18.7459L21.8372 20.8467L23.3628 19.5533ZM20.9071 23.3071L23.3071 20.9071L21.8929 19.4929L19.4929 21.8929L20.9071 23.3071ZM17.5246 21.6321C17.7424 21.7878 18.2264 22.1975 18.6953 22.6057C18.9209 22.802 19.1304 22.987 19.2838 23.123C19.3604 23.191 19.4227 23.2465 19.4659 23.285C19.4874 23.3043 19.5042 23.3193 19.5155 23.3294C19.5211 23.3344 19.5254 23.3382 19.5282 23.3408C19.5297 23.3421 19.5307 23.343 19.5314 23.3436C19.5317 23.3439 19.532 23.3441 19.5321 23.3443C19.5322 23.3444 19.5323 23.3444 19.5323 23.3444C19.5323 23.3444 19.5323 23.3445 19.5323 23.3445C19.5323 23.3445 19.5323 23.3445 20.2 22.6C20.8677 21.8555 20.8677 21.8555 20.8676 21.8555C20.8676 21.8555 20.8676 21.8555 20.8676 21.8554C20.8675 21.8554 20.8674 21.8553 20.8673 21.8552C20.8671 21.855 20.8667 21.8547 20.8663 21.8543C20.8655 21.8536 20.8643 21.8525 20.8628 21.8511C20.8596 21.8484 20.8551 21.8443 20.8491 21.8389C20.8373 21.8283 20.8199 21.8128 20.7977 21.7929C20.7532 21.7533 20.6893 21.6963 20.611 21.6269C20.4546 21.4881 20.2401 21.2988 20.0084 21.0971C19.5629 20.7094 19 20.2283 18.6876 20.0051L17.5246 21.6321ZM15.308 23.0597L18.4887 21.7425L17.7235 19.8947L14.5428 21.2119L15.308 23.0597ZM15.1694 25.2455L15.8948 22.3814L13.956 21.8903L13.2306 24.7545L15.1694 25.2455ZM11.8 26H14.2V24H11.8V26ZM10.1068 22.3796L10.8304 25.2449L12.7696 24.7551L12.046 21.8899L10.1068 22.3796ZM7.56894 21.7732L10.696 23.0596L11.4568 21.21L8.32984 19.9236L7.56894 21.7732ZM6.43173 23.3752L8.58113 21.6235L7.31766 20.0732L5.16827 21.8248L6.43173 23.3752ZM2.69289 20.9071L5.09289 23.3071L6.50711 21.8929L4.10711 19.4929L2.69289 20.9071ZM4.47244 17.4942L2.65354 19.5346L4.14646 20.8654L5.96536 18.8251L4.47244 17.4942ZM2.95986 15.375L4.29743 18.5481L6.14037 17.7712L4.80281 14.5982L2.95986 15.375ZM0.736639 15.1647L3.61797 15.9513L4.14469 14.0219L1.26336 13.2353L0.736639 15.1647ZM0 11.8V14.2H2V11.8H0ZM3.61972 10.1617L0.772725 10.8262L1.22728 12.7738L4.07428 12.1094L3.61972 10.1617ZM4.21773 7.56986L2.92069 10.7588L4.77331 11.5123L6.07035 8.32338L4.21773 7.56986ZM2.62387 6.43057L4.36792 8.57719L5.92017 7.31605L4.17613 5.16943L2.62387 6.43057ZM5.09289 2.69289L2.69289 5.09289L4.10711 6.50711L6.50711 4.10711L5.09289 2.69289ZM8.50988 4.47195L6.46459 2.65279L5.13541 4.14721L7.1807 5.96636L8.50988 4.47195ZM10.6305 2.95988L7.45686 4.29768L8.23373 6.14063L11.4074 4.80283L10.6305 2.95988ZM10.8101 0.745498L10.0518 3.62685L11.986 4.13586L12.7443 1.2545L10.8101 0.745498ZM14.1224 0H11.7772V2H14.1224V0ZM15.8365 3.58962L15.0895 0.745932L13.1552 1.25407L13.9022 4.09776L15.8365 3.58962ZM18.498 4.25469L15.2497 2.91884L14.489 4.76853L17.7373 6.10439L18.498 4.25469ZM19.5503 2.63978L17.468 4.41932L18.7673 5.93976L20.8497 4.16022L19.5503 2.63978ZM23.3071 5.09289L20.9071 2.69289L19.4929 4.10711L21.8929 6.50711L23.3071 5.09289ZM21.5933 8.53943L23.3636 6.44567L21.8364 5.15433L20.066 7.24809L21.5933 8.53943ZM12.9999 17.5999C15.5405 17.5999 17.5999 15.5405 17.5999 12.9999H15.5999C15.5999 14.4359 14.4359 15.5999 12.9999 15.5999V17.5999ZM8.3999 12.9999C8.3999 15.5405 10.4593 17.5999 12.9999 17.5999V15.5999C11.5639 15.5999 10.3999 14.4359 10.3999 12.9999H8.3999ZM12.9999 8.3999C10.4593 8.3999 8.3999 10.4593 8.3999 12.9999H10.3999C10.3999 11.5639 11.5639 10.3999 12.9999 10.3999V8.3999ZM17.5999 12.9999C17.5999 10.4593 15.5405 8.3999 12.9999 8.3999V10.3999C14.4359 10.3999 15.5999 11.5639 15.5999 12.9999H17.5999Z" fill="#333333"/>
</svg>
