<svg width="334" height="126" viewBox="0 0 334 126" fill="none" xmlns="http://www.w3.org/2000/svg">
<g filter="url(#filter0_d_484_18)">
<mask id="path-1-outside-1_484_18" maskUnits="userSpaceOnUse" x="29" y="82" width="275" height="31" fill="black">
<rect fill="white" x="29" y="82" width="275" height="31"/>
<path d="M48.9896 85.96H53.7576C54.163 85.96 54.451 86.056 54.6216 86.248C54.8136 86.4187 54.9096 86.7067 54.9096 87.112V99.528C54.9096 100.211 54.8776 100.851 54.8136 101.448C54.771 102.024 54.611 102.707 54.3336 103.496L52.7336 107.848C52.627 108.168 52.467 108.445 52.2536 108.68C52.0616 108.893 51.795 109 51.4536 109H47.1976C46.8563 109 46.547 108.925 46.2696 108.776C45.9923 108.627 45.811 108.381 45.7256 108.04L44.2536 102.824C44.1896 102.611 44.1043 102.472 43.9976 102.408C43.9123 102.323 43.8056 102.28 43.6776 102.28H43.3896C43.2616 102.28 43.1443 102.323 43.0376 102.408C42.9523 102.472 42.8776 102.611 42.8136 102.824L41.3096 108.04C41.2243 108.36 41.0643 108.605 40.8296 108.776C40.595 108.925 40.307 109 39.9656 109H35.7416C35.4003 109 35.1016 108.893 34.8456 108.68C34.611 108.467 34.4403 108.189 34.3336 107.848L32.7336 103.432C32.4563 102.643 32.2856 101.96 32.2216 101.384C32.179 100.787 32.1576 100.147 32.1576 99.464V87.112C32.1576 86.7067 32.243 86.4187 32.4136 86.248C32.6056 86.056 32.9043 85.96 33.3096 85.96H38.2376C38.643 85.96 38.931 86.056 39.1016 86.248C39.2936 86.4187 39.3896 86.7067 39.3896 87.112V98.888L41.2456 94.856C41.4163 94.4933 41.6403 94.2373 41.9176 94.088C42.195 93.9387 42.5363 93.864 42.9416 93.864H44.2856C44.691 93.864 45.0323 93.9387 45.3096 94.088C45.587 94.2373 45.811 94.4933 45.9816 94.856L47.8376 98.888V87.112C47.8376 86.7067 47.923 86.4187 48.0936 86.248C48.2856 86.056 48.5843 85.96 48.9896 85.96ZM75.0394 109H60.1914C59.7861 109 59.4874 108.915 59.2954 108.744C59.1247 108.552 59.0394 108.253 59.0394 107.848V87.112C59.0394 86.7067 59.1247 86.4187 59.2954 86.248C59.4874 86.056 59.7861 85.96 60.1914 85.96H75.0394C75.4447 85.96 75.7327 86.056 75.9034 86.248C76.0954 86.4187 76.1914 86.7067 76.1914 87.112V90.856C76.1914 91.2613 76.0954 91.56 75.9034 91.752C75.7327 91.9227 75.4447 92.008 75.0394 92.008H66.2074V94.472H72.4474C72.8527 94.472 73.1407 94.568 73.3114 94.76C73.5034 94.9307 73.5994 95.2187 73.5994 95.624V99.048C73.5994 99.4533 73.5034 99.752 73.3114 99.944C73.1407 100.115 72.8527 100.2 72.4474 100.2H66.2074V102.952H75.0394C75.4447 102.952 75.7327 103.048 75.9034 103.24C76.0954 103.411 76.1914 103.699 76.1914 104.104V107.848C76.1914 108.253 76.0954 108.552 75.9034 108.744C75.7327 108.915 75.4447 109 75.0394 109ZM97.4169 109H81.1289C80.7236 109 80.4249 108.915 80.2329 108.744C80.0622 108.552 79.9769 108.253 79.9769 107.848V87.112C79.9769 86.7067 80.0622 86.4187 80.2329 86.248C80.4249 86.056 80.7236 85.96 81.1289 85.96H86.0889C86.4942 85.96 86.7822 86.056 86.9529 86.248C87.1449 86.4187 87.2409 86.7067 87.2409 87.112V102.952H91.6249V97.768C91.6249 97.3627 91.7102 97.0747 91.8809 96.904C92.0729 96.712 92.3716 96.616 92.7769 96.616H97.4169C97.8222 96.616 98.1102 96.712 98.2809 96.904C98.4729 97.0747 98.5689 97.3627 98.5689 97.768V107.848C98.5689 108.253 98.4729 108.552 98.2809 108.744C98.1102 108.915 97.8222 109 97.4169 109ZM117.555 109H109.747C107.08 109 105.096 108.467 103.795 107.4C102.515 106.333 101.875 104.691 101.875 102.472V92.52C101.875 90.3013 102.515 88.6587 103.795 87.592C105.096 86.504 107.08 85.96 109.747 85.96H117.555C117.96 85.96 118.248 86.056 118.419 86.248C118.611 86.4187 118.707 86.7067 118.707 87.112V90.984C118.707 91.3893 118.611 91.688 118.419 91.88C118.248 92.0507 117.96 92.136 117.555 92.136H111.123C110.462 92.136 109.971 92.2747 109.651 92.552C109.331 92.808 109.171 93.2027 109.171 93.736V101.352C109.171 101.885 109.331 102.28 109.651 102.536C109.971 102.771 110.462 102.888 111.123 102.888H117.555C117.96 102.888 118.248 102.984 118.419 103.176C118.611 103.347 118.707 103.635 118.707 104.04V107.848C118.707 108.253 118.611 108.552 118.419 108.744C118.248 108.915 117.96 109 117.555 109ZM141.684 102.952C141.684 103.933 141.535 104.829 141.236 105.64C140.959 106.429 140.447 107.112 139.7 107.688C138.975 108.243 137.962 108.68 136.66 109C135.38 109.32 133.748 109.48 131.764 109.48C129.78 109.48 128.138 109.32 126.836 109C125.535 108.68 124.511 108.243 123.764 107.688C123.039 107.112 122.527 106.429 122.228 105.64C121.951 104.829 121.812 103.933 121.812 102.952V92.04C121.812 91.0587 121.951 90.1733 122.228 89.384C122.527 88.5733 123.039 87.88 123.764 87.304C124.511 86.728 125.535 86.28 126.836 85.96C128.138 85.64 129.78 85.48 131.764 85.48C133.748 85.48 135.38 85.64 136.66 85.96C137.962 86.28 138.975 86.728 139.7 87.304C140.447 87.88 140.959 88.5733 141.236 89.384C141.535 90.1733 141.684 91.0587 141.684 92.04V102.952ZM129.076 101.8C129.076 102.227 129.236 102.589 129.556 102.888C129.876 103.165 130.612 103.304 131.764 103.304C132.916 103.304 133.652 103.165 133.972 102.888C134.292 102.589 134.452 102.227 134.452 101.8V93.192C134.452 92.7867 134.292 92.4453 133.972 92.168C133.652 91.8693 132.916 91.72 131.764 91.72C130.612 91.72 129.876 91.8693 129.556 92.168C129.236 92.4453 129.076 92.7867 129.076 93.192V101.8ZM151.678 109H146.91C146.505 109 146.206 108.915 146.014 108.744C145.843 108.552 145.758 108.253 145.758 107.848V87.112C145.758 86.7067 145.843 86.4187 146.014 86.248C146.206 86.056 146.505 85.96 146.91 85.96H152.062C152.403 85.96 152.681 86.0347 152.894 86.184C153.129 86.3333 153.342 86.5787 153.534 86.92L156.414 92.136C156.521 92.328 156.606 92.4667 156.67 92.552C156.755 92.6373 156.862 92.68 156.99 92.68H157.278C157.406 92.68 157.502 92.6373 157.566 92.552C157.651 92.4667 157.747 92.328 157.854 92.136L160.702 86.92C160.894 86.5787 161.097 86.3333 161.31 86.184C161.545 86.0347 161.833 85.96 162.174 85.96H167.358C167.763 85.96 168.051 86.056 168.222 86.248C168.414 86.4187 168.51 86.7067 168.51 87.112V107.848C168.51 108.253 168.414 108.552 168.222 108.744C168.051 108.915 167.763 109 167.358 109H162.43C162.025 109 161.726 108.915 161.534 108.744C161.363 108.552 161.278 108.253 161.278 107.848V96.584L159.39 100.072C159.198 100.435 158.963 100.701 158.686 100.872C158.43 101.021 158.099 101.096 157.694 101.096H156.414C156.009 101.096 155.667 101.021 155.39 100.872C155.134 100.701 154.91 100.435 154.718 100.072L152.83 96.584V107.848C152.83 108.253 152.734 108.552 152.542 108.744C152.371 108.915 152.083 109 151.678 109ZM188.914 109H174.066C173.661 109 173.362 108.915 173.17 108.744C173 108.552 172.914 108.253 172.914 107.848V87.112C172.914 86.7067 173 86.4187 173.17 86.248C173.362 86.056 173.661 85.96 174.066 85.96H188.914C189.32 85.96 189.608 86.056 189.778 86.248C189.97 86.4187 190.066 86.7067 190.066 87.112V90.856C190.066 91.2613 189.97 91.56 189.778 91.752C189.608 91.9227 189.32 92.008 188.914 92.008H180.082V94.472H186.322C186.728 94.472 187.016 94.568 187.186 94.76C187.378 94.9307 187.474 95.2187 187.474 95.624V99.048C187.474 99.4533 187.378 99.752 187.186 99.944C187.016 100.115 186.728 100.2 186.322 100.2H180.082V102.952H188.914C189.32 102.952 189.608 103.048 189.778 103.24C189.97 103.411 190.066 103.699 190.066 104.104V107.848C190.066 108.253 189.97 108.552 189.778 108.744C189.608 108.915 189.32 109 188.914 109ZM214.479 109H202.191C201.786 109 201.487 108.915 201.295 108.744C201.125 108.552 201.039 108.253 201.039 107.848V87.112C201.039 86.7067 201.125 86.4187 201.295 86.248C201.487 86.056 201.786 85.96 202.191 85.96H212.399C214.49 85.96 216.037 86.3653 217.039 87.176C218.042 87.9653 218.543 89.192 218.543 90.856V92.392C218.543 93.288 218.383 94.024 218.063 94.6C217.765 95.1547 217.295 95.5707 216.655 95.848C218.021 95.976 219.034 96.4453 219.695 97.256C220.357 98.0667 220.687 99.2507 220.687 100.808V103.752C220.687 105.544 220.175 106.867 219.151 107.72C218.149 108.573 216.591 109 214.479 109ZM208.239 91.4V94.856H210.959C211.365 94.856 211.663 94.7493 211.855 94.536C212.069 94.3227 212.175 94.0027 212.175 93.576V92.68C212.175 92.2533 212.069 91.9333 211.855 91.72C211.663 91.5067 211.365 91.4 210.959 91.4H208.239ZM208.239 99.784V103.56H212.399C212.805 103.56 213.103 103.453 213.295 103.24C213.509 103.027 213.615 102.707 213.615 102.28V101.032C213.615 100.605 213.509 100.296 213.295 100.104C213.103 99.8907 212.805 99.784 212.399 99.784H208.239ZM232.579 92.68L231.075 97.544H236.099L234.595 92.68C234.51 92.488 234.414 92.3493 234.307 92.264C234.222 92.1787 234.115 92.136 233.987 92.136H233.187C233.059 92.136 232.942 92.1787 232.835 92.264C232.75 92.3493 232.664 92.488 232.579 92.68ZM230.755 107.848C230.755 108.253 230.659 108.552 230.467 108.744C230.296 108.915 230.008 109 229.603 109H224.899C224.494 109 224.195 108.915 224.003 108.744C223.832 108.552 223.747 108.253 223.747 107.848V99.4C223.747 98.76 223.843 98.024 224.035 97.192C224.248 96.36 224.568 95.3893 224.995 94.28L227.779 87.016C227.907 86.6533 228.099 86.3867 228.355 86.216C228.632 86.0453 228.984 85.96 229.411 85.96H238.019C238.424 85.96 238.755 86.0453 239.011 86.216C239.288 86.3867 239.491 86.6533 239.619 87.016L242.403 94.28C242.83 95.3893 243.139 96.36 243.331 97.192C243.544 98.024 243.651 98.76 243.651 99.4V107.848C243.651 108.253 243.555 108.552 243.363 108.744C243.192 108.915 242.904 109 242.499 109H237.667C237.24 109 236.92 108.915 236.707 108.744C236.515 108.552 236.419 108.253 236.419 107.848V103.368H230.755V107.848ZM262.93 109H255.122C252.455 109 250.471 108.467 249.17 107.4C247.89 106.333 247.25 104.691 247.25 102.472V92.52C247.25 90.3013 247.89 88.6587 249.17 87.592C250.471 86.504 252.455 85.96 255.122 85.96H262.93C263.335 85.96 263.623 86.056 263.794 86.248C263.986 86.4187 264.082 86.7067 264.082 87.112V90.984C264.082 91.3893 263.986 91.688 263.794 91.88C263.623 92.0507 263.335 92.136 262.93 92.136H256.498C255.837 92.136 255.346 92.2747 255.026 92.552C254.706 92.808 254.546 93.2027 254.546 93.736V101.352C254.546 101.885 254.706 102.28 255.026 102.536C255.346 102.771 255.837 102.888 256.498 102.888H262.93C263.335 102.888 263.623 102.984 263.794 103.176C263.986 103.347 264.082 103.635 264.082 104.04V107.848C264.082 108.253 263.986 108.552 263.794 108.744C263.623 108.915 263.335 109 262.93 109ZM273.808 109H268.848C268.442 109 268.144 108.915 267.952 108.744C267.781 108.552 267.696 108.253 267.696 107.848V87.112C267.696 86.7067 267.781 86.4187 267.952 86.248C268.144 86.056 268.442 85.96 268.848 85.96H273.808C274.213 85.96 274.501 86.056 274.672 86.248C274.864 86.4187 274.96 86.7067 274.96 87.112V94.472H276.24L279.536 87.016C279.685 86.632 279.888 86.3653 280.144 86.216C280.4 86.0453 280.73 85.96 281.136 85.96H286.064C286.426 85.96 286.672 86.056 286.8 86.248C286.928 86.4187 286.917 86.6747 286.768 87.016L283.504 94.472C284.698 94.536 285.648 94.9627 286.352 95.752C287.077 96.52 287.44 97.544 287.44 98.824V107.848C287.44 108.253 287.344 108.552 287.152 108.744C286.981 108.915 286.693 109 286.288 109H281.36C280.954 109 280.656 108.915 280.464 108.744C280.293 108.552 280.208 108.253 280.208 107.848V101.608C280.208 101.267 280.122 101 279.952 100.808C279.781 100.616 279.525 100.52 279.184 100.52H274.96V107.848C274.96 108.253 274.864 108.552 274.672 108.744C274.501 108.915 274.213 109 273.808 109ZM298.643 100.616H293.683C293.277 100.616 292.979 100.531 292.787 100.36C292.616 100.168 292.52 99.8693 292.499 99.464L292.019 87.112C291.997 86.7067 292.072 86.4187 292.243 86.248C292.413 86.056 292.701 85.96 293.107 85.96H299.219C299.624 85.96 299.912 86.056 300.083 86.248C300.253 86.4187 300.328 86.7067 300.307 87.112L299.859 99.464C299.837 99.8693 299.731 100.168 299.539 100.36C299.347 100.531 299.048 100.616 298.643 100.616ZM299.123 109H293.235C292.829 109 292.531 108.915 292.339 108.744C292.168 108.552 292.083 108.253 292.083 107.848V103.656C292.083 103.251 292.168 102.963 292.339 102.792C292.531 102.6 292.829 102.504 293.235 102.504H299.123C299.528 102.504 299.816 102.6 299.987 102.792C300.179 102.963 300.275 103.251 300.275 103.656V107.848C300.275 108.253 300.179 108.552 299.987 108.744C299.816 108.915 299.528 109 299.123 109Z"/>
</mask>
<path d="M48.9896 85.96H53.7576C54.163 85.96 54.451 86.056 54.6216 86.248C54.8136 86.4187 54.9096 86.7067 54.9096 87.112V99.528C54.9096 100.211 54.8776 100.851 54.8136 101.448C54.771 102.024 54.611 102.707 54.3336 103.496L52.7336 107.848C52.627 108.168 52.467 108.445 52.2536 108.68C52.0616 108.893 51.795 109 51.4536 109H47.1976C46.8563 109 46.547 108.925 46.2696 108.776C45.9923 108.627 45.811 108.381 45.7256 108.04L44.2536 102.824C44.1896 102.611 44.1043 102.472 43.9976 102.408C43.9123 102.323 43.8056 102.28 43.6776 102.28H43.3896C43.2616 102.28 43.1443 102.323 43.0376 102.408C42.9523 102.472 42.8776 102.611 42.8136 102.824L41.3096 108.04C41.2243 108.36 41.0643 108.605 40.8296 108.776C40.595 108.925 40.307 109 39.9656 109H35.7416C35.4003 109 35.1016 108.893 34.8456 108.68C34.611 108.467 34.4403 108.189 34.3336 107.848L32.7336 103.432C32.4563 102.643 32.2856 101.96 32.2216 101.384C32.179 100.787 32.1576 100.147 32.1576 99.464V87.112C32.1576 86.7067 32.243 86.4187 32.4136 86.248C32.6056 86.056 32.9043 85.96 33.3096 85.96H38.2376C38.643 85.96 38.931 86.056 39.1016 86.248C39.2936 86.4187 39.3896 86.7067 39.3896 87.112V98.888L41.2456 94.856C41.4163 94.4933 41.6403 94.2373 41.9176 94.088C42.195 93.9387 42.5363 93.864 42.9416 93.864H44.2856C44.691 93.864 45.0323 93.9387 45.3096 94.088C45.587 94.2373 45.811 94.4933 45.9816 94.856L47.8376 98.888V87.112C47.8376 86.7067 47.923 86.4187 48.0936 86.248C48.2856 86.056 48.5843 85.96 48.9896 85.96ZM75.0394 109H60.1914C59.7861 109 59.4874 108.915 59.2954 108.744C59.1247 108.552 59.0394 108.253 59.0394 107.848V87.112C59.0394 86.7067 59.1247 86.4187 59.2954 86.248C59.4874 86.056 59.7861 85.96 60.1914 85.96H75.0394C75.4447 85.96 75.7327 86.056 75.9034 86.248C76.0954 86.4187 76.1914 86.7067 76.1914 87.112V90.856C76.1914 91.2613 76.0954 91.56 75.9034 91.752C75.7327 91.9227 75.4447 92.008 75.0394 92.008H66.2074V94.472H72.4474C72.8527 94.472 73.1407 94.568 73.3114 94.76C73.5034 94.9307 73.5994 95.2187 73.5994 95.624V99.048C73.5994 99.4533 73.5034 99.752 73.3114 99.944C73.1407 100.115 72.8527 100.2 72.4474 100.2H66.2074V102.952H75.0394C75.4447 102.952 75.7327 103.048 75.9034 103.24C76.0954 103.411 76.1914 103.699 76.1914 104.104V107.848C76.1914 108.253 76.0954 108.552 75.9034 108.744C75.7327 108.915 75.4447 109 75.0394 109ZM97.4169 109H81.1289C80.7236 109 80.4249 108.915 80.2329 108.744C80.0622 108.552 79.9769 108.253 79.9769 107.848V87.112C79.9769 86.7067 80.0622 86.4187 80.2329 86.248C80.4249 86.056 80.7236 85.96 81.1289 85.96H86.0889C86.4942 85.96 86.7822 86.056 86.9529 86.248C87.1449 86.4187 87.2409 86.7067 87.2409 87.112V102.952H91.6249V97.768C91.6249 97.3627 91.7102 97.0747 91.8809 96.904C92.0729 96.712 92.3716 96.616 92.7769 96.616H97.4169C97.8222 96.616 98.1102 96.712 98.2809 96.904C98.4729 97.0747 98.5689 97.3627 98.5689 97.768V107.848C98.5689 108.253 98.4729 108.552 98.2809 108.744C98.1102 108.915 97.8222 109 97.4169 109ZM117.555 109H109.747C107.08 109 105.096 108.467 103.795 107.4C102.515 106.333 101.875 104.691 101.875 102.472V92.52C101.875 90.3013 102.515 88.6587 103.795 87.592C105.096 86.504 107.08 85.96 109.747 85.96H117.555C117.96 85.96 118.248 86.056 118.419 86.248C118.611 86.4187 118.707 86.7067 118.707 87.112V90.984C118.707 91.3893 118.611 91.688 118.419 91.88C118.248 92.0507 117.96 92.136 117.555 92.136H111.123C110.462 92.136 109.971 92.2747 109.651 92.552C109.331 92.808 109.171 93.2027 109.171 93.736V101.352C109.171 101.885 109.331 102.28 109.651 102.536C109.971 102.771 110.462 102.888 111.123 102.888H117.555C117.96 102.888 118.248 102.984 118.419 103.176C118.611 103.347 118.707 103.635 118.707 104.04V107.848C118.707 108.253 118.611 108.552 118.419 108.744C118.248 108.915 117.96 109 117.555 109ZM141.684 102.952C141.684 103.933 141.535 104.829 141.236 105.64C140.959 106.429 140.447 107.112 139.7 107.688C138.975 108.243 137.962 108.68 136.66 109C135.38 109.32 133.748 109.48 131.764 109.48C129.78 109.48 128.138 109.32 126.836 109C125.535 108.68 124.511 108.243 123.764 107.688C123.039 107.112 122.527 106.429 122.228 105.64C121.951 104.829 121.812 103.933 121.812 102.952V92.04C121.812 91.0587 121.951 90.1733 122.228 89.384C122.527 88.5733 123.039 87.88 123.764 87.304C124.511 86.728 125.535 86.28 126.836 85.96C128.138 85.64 129.78 85.48 131.764 85.48C133.748 85.48 135.38 85.64 136.66 85.96C137.962 86.28 138.975 86.728 139.7 87.304C140.447 87.88 140.959 88.5733 141.236 89.384C141.535 90.1733 141.684 91.0587 141.684 92.04V102.952ZM129.076 101.8C129.076 102.227 129.236 102.589 129.556 102.888C129.876 103.165 130.612 103.304 131.764 103.304C132.916 103.304 133.652 103.165 133.972 102.888C134.292 102.589 134.452 102.227 134.452 101.8V93.192C134.452 92.7867 134.292 92.4453 133.972 92.168C133.652 91.8693 132.916 91.72 131.764 91.72C130.612 91.72 129.876 91.8693 129.556 92.168C129.236 92.4453 129.076 92.7867 129.076 93.192V101.8ZM151.678 109H146.91C146.505 109 146.206 108.915 146.014 108.744C145.843 108.552 145.758 108.253 145.758 107.848V87.112C145.758 86.7067 145.843 86.4187 146.014 86.248C146.206 86.056 146.505 85.96 146.91 85.96H152.062C152.403 85.96 152.681 86.0347 152.894 86.184C153.129 86.3333 153.342 86.5787 153.534 86.92L156.414 92.136C156.521 92.328 156.606 92.4667 156.67 92.552C156.755 92.6373 156.862 92.68 156.99 92.68H157.278C157.406 92.68 157.502 92.6373 157.566 92.552C157.651 92.4667 157.747 92.328 157.854 92.136L160.702 86.92C160.894 86.5787 161.097 86.3333 161.31 86.184C161.545 86.0347 161.833 85.96 162.174 85.96H167.358C167.763 85.96 168.051 86.056 168.222 86.248C168.414 86.4187 168.51 86.7067 168.51 87.112V107.848C168.51 108.253 168.414 108.552 168.222 108.744C168.051 108.915 167.763 109 167.358 109H162.43C162.025 109 161.726 108.915 161.534 108.744C161.363 108.552 161.278 108.253 161.278 107.848V96.584L159.39 100.072C159.198 100.435 158.963 100.701 158.686 100.872C158.43 101.021 158.099 101.096 157.694 101.096H156.414C156.009 101.096 155.667 101.021 155.39 100.872C155.134 100.701 154.91 100.435 154.718 100.072L152.83 96.584V107.848C152.83 108.253 152.734 108.552 152.542 108.744C152.371 108.915 152.083 109 151.678 109ZM188.914 109H174.066C173.661 109 173.362 108.915 173.17 108.744C173 108.552 172.914 108.253 172.914 107.848V87.112C172.914 86.7067 173 86.4187 173.17 86.248C173.362 86.056 173.661 85.96 174.066 85.96H188.914C189.32 85.96 189.608 86.056 189.778 86.248C189.97 86.4187 190.066 86.7067 190.066 87.112V90.856C190.066 91.2613 189.97 91.56 189.778 91.752C189.608 91.9227 189.32 92.008 188.914 92.008H180.082V94.472H186.322C186.728 94.472 187.016 94.568 187.186 94.76C187.378 94.9307 187.474 95.2187 187.474 95.624V99.048C187.474 99.4533 187.378 99.752 187.186 99.944C187.016 100.115 186.728 100.2 186.322 100.2H180.082V102.952H188.914C189.32 102.952 189.608 103.048 189.778 103.24C189.97 103.411 190.066 103.699 190.066 104.104V107.848C190.066 108.253 189.97 108.552 189.778 108.744C189.608 108.915 189.32 109 188.914 109ZM214.479 109H202.191C201.786 109 201.487 108.915 201.295 108.744C201.125 108.552 201.039 108.253 201.039 107.848V87.112C201.039 86.7067 201.125 86.4187 201.295 86.248C201.487 86.056 201.786 85.96 202.191 85.96H212.399C214.49 85.96 216.037 86.3653 217.039 87.176C218.042 87.9653 218.543 89.192 218.543 90.856V92.392C218.543 93.288 218.383 94.024 218.063 94.6C217.765 95.1547 217.295 95.5707 216.655 95.848C218.021 95.976 219.034 96.4453 219.695 97.256C220.357 98.0667 220.687 99.2507 220.687 100.808V103.752C220.687 105.544 220.175 106.867 219.151 107.72C218.149 108.573 216.591 109 214.479 109ZM208.239 91.4V94.856H210.959C211.365 94.856 211.663 94.7493 211.855 94.536C212.069 94.3227 212.175 94.0027 212.175 93.576V92.68C212.175 92.2533 212.069 91.9333 211.855 91.72C211.663 91.5067 211.365 91.4 210.959 91.4H208.239ZM208.239 99.784V103.56H212.399C212.805 103.56 213.103 103.453 213.295 103.24C213.509 103.027 213.615 102.707 213.615 102.28V101.032C213.615 100.605 213.509 100.296 213.295 100.104C213.103 99.8907 212.805 99.784 212.399 99.784H208.239ZM232.579 92.68L231.075 97.544H236.099L234.595 92.68C234.51 92.488 234.414 92.3493 234.307 92.264C234.222 92.1787 234.115 92.136 233.987 92.136H233.187C233.059 92.136 232.942 92.1787 232.835 92.264C232.75 92.3493 232.664 92.488 232.579 92.68ZM230.755 107.848C230.755 108.253 230.659 108.552 230.467 108.744C230.296 108.915 230.008 109 229.603 109H224.899C224.494 109 224.195 108.915 224.003 108.744C223.832 108.552 223.747 108.253 223.747 107.848V99.4C223.747 98.76 223.843 98.024 224.035 97.192C224.248 96.36 224.568 95.3893 224.995 94.28L227.779 87.016C227.907 86.6533 228.099 86.3867 228.355 86.216C228.632 86.0453 228.984 85.96 229.411 85.96H238.019C238.424 85.96 238.755 86.0453 239.011 86.216C239.288 86.3867 239.491 86.6533 239.619 87.016L242.403 94.28C242.83 95.3893 243.139 96.36 243.331 97.192C243.544 98.024 243.651 98.76 243.651 99.4V107.848C243.651 108.253 243.555 108.552 243.363 108.744C243.192 108.915 242.904 109 242.499 109H237.667C237.24 109 236.92 108.915 236.707 108.744C236.515 108.552 236.419 108.253 236.419 107.848V103.368H230.755V107.848ZM262.93 109H255.122C252.455 109 250.471 108.467 249.17 107.4C247.89 106.333 247.25 104.691 247.25 102.472V92.52C247.25 90.3013 247.89 88.6587 249.17 87.592C250.471 86.504 252.455 85.96 255.122 85.96H262.93C263.335 85.96 263.623 86.056 263.794 86.248C263.986 86.4187 264.082 86.7067 264.082 87.112V90.984C264.082 91.3893 263.986 91.688 263.794 91.88C263.623 92.0507 263.335 92.136 262.93 92.136H256.498C255.837 92.136 255.346 92.2747 255.026 92.552C254.706 92.808 254.546 93.2027 254.546 93.736V101.352C254.546 101.885 254.706 102.28 255.026 102.536C255.346 102.771 255.837 102.888 256.498 102.888H262.93C263.335 102.888 263.623 102.984 263.794 103.176C263.986 103.347 264.082 103.635 264.082 104.04V107.848C264.082 108.253 263.986 108.552 263.794 108.744C263.623 108.915 263.335 109 262.93 109ZM273.808 109H268.848C268.442 109 268.144 108.915 267.952 108.744C267.781 108.552 267.696 108.253 267.696 107.848V87.112C267.696 86.7067 267.781 86.4187 267.952 86.248C268.144 86.056 268.442 85.96 268.848 85.96H273.808C274.213 85.96 274.501 86.056 274.672 86.248C274.864 86.4187 274.96 86.7067 274.96 87.112V94.472H276.24L279.536 87.016C279.685 86.632 279.888 86.3653 280.144 86.216C280.4 86.0453 280.73 85.96 281.136 85.96H286.064C286.426 85.96 286.672 86.056 286.8 86.248C286.928 86.4187 286.917 86.6747 286.768 87.016L283.504 94.472C284.698 94.536 285.648 94.9627 286.352 95.752C287.077 96.52 287.44 97.544 287.44 98.824V107.848C287.44 108.253 287.344 108.552 287.152 108.744C286.981 108.915 286.693 109 286.288 109H281.36C280.954 109 280.656 108.915 280.464 108.744C280.293 108.552 280.208 108.253 280.208 107.848V101.608C280.208 101.267 280.122 101 279.952 100.808C279.781 100.616 279.525 100.52 279.184 100.52H274.96V107.848C274.96 108.253 274.864 108.552 274.672 108.744C274.501 108.915 274.213 109 273.808 109ZM298.643 100.616H293.683C293.277 100.616 292.979 100.531 292.787 100.36C292.616 100.168 292.52 99.8693 292.499 99.464L292.019 87.112C291.997 86.7067 292.072 86.4187 292.243 86.248C292.413 86.056 292.701 85.96 293.107 85.96H299.219C299.624 85.96 299.912 86.056 300.083 86.248C300.253 86.4187 300.328 86.7067 300.307 87.112L299.859 99.464C299.837 99.8693 299.731 100.168 299.539 100.36C299.347 100.531 299.048 100.616 298.643 100.616ZM299.123 109H293.235C292.829 109 292.531 108.915 292.339 108.744C292.168 108.552 292.083 108.253 292.083 107.848V103.656C292.083 103.251 292.168 102.963 292.339 102.792C292.531 102.6 292.829 102.504 293.235 102.504H299.123C299.528 102.504 299.816 102.6 299.987 102.792C300.179 102.963 300.275 103.251 300.275 103.656V107.848C300.275 108.253 300.179 108.552 299.987 108.744C299.816 108.915 299.528 109 299.123 109Z" fill="#FFFCBA"/>
<path d="M54.6216 86.248L52.6054 88.0402L52.7108 88.1588L52.8294 88.2643L54.6216 86.248ZM54.8136 101.448L52.1313 101.161L52.1266 101.205L52.1233 101.249L54.8136 101.448ZM54.3336 103.496L56.8656 104.427L56.8723 104.409L56.8788 104.39L54.3336 103.496ZM52.7336 107.848L50.2017 106.917L50.1874 106.956L50.1744 106.995L52.7336 107.848ZM52.2536 108.68L50.2575 106.865L50.2485 106.875L52.2536 108.68ZM46.2696 108.776L47.5486 106.401H47.5486L46.2696 108.776ZM45.7256 108.04L48.3428 107.386L48.3329 107.346L48.3219 107.307L45.7256 108.04ZM44.2536 102.824L46.8499 102.091L46.8439 102.07L46.8375 102.049L44.2536 102.824ZM43.9976 102.408L42.0901 104.316L42.3249 104.55L42.6097 104.721L43.9976 102.408ZM43.0376 102.408L44.6563 104.566L44.69 104.541L44.7229 104.515L43.0376 102.408ZM42.8136 102.824L40.2297 102.049L40.2256 102.063L40.2216 102.077L42.8136 102.824ZM41.3096 108.04L38.7176 107.293L38.71 107.319L38.7031 107.345L41.3096 108.04ZM40.8296 108.776L42.278 111.052L42.3486 111.007L42.4163 110.958L40.8296 108.776ZM34.8456 108.68L33.031 110.676L33.074 110.715L33.1186 110.752L34.8456 108.68ZM34.3336 107.848L36.9085 107.043L36.8905 106.986L36.87 106.929L34.3336 107.848ZM32.7336 103.432L30.1885 104.326L30.1928 104.339L30.1973 104.351L32.7336 103.432ZM32.2216 101.384L29.5308 101.576L29.5346 101.629L29.5405 101.682L32.2216 101.384ZM32.4136 86.248L30.5061 84.3405L30.5061 84.3405L32.4136 86.248ZM39.1016 86.248L37.0854 88.0402L37.1908 88.1588L37.3094 88.2643L39.1016 86.248ZM39.3896 98.888H36.692L41.8402 100.016L39.3896 98.888ZM41.2456 94.856L38.8047 93.7073L38.7999 93.7176L38.7951 93.728L41.2456 94.856ZM41.9176 94.088L40.6387 91.7128L40.6387 91.7128L41.9176 94.088ZM45.3096 94.088L44.0307 96.4632V96.4632L45.3096 94.088ZM45.9816 94.856L48.4322 93.728L48.4274 93.7176L48.4225 93.7073L45.9816 94.856ZM47.8376 98.888L45.3871 100.016L50.5353 98.888H47.8376ZM48.9896 88.6577H53.7576V83.2623H48.9896V88.6577ZM53.7576 88.6577C53.7541 88.6577 53.723 88.6576 53.6696 88.6502C53.6164 88.6428 53.5314 88.6269 53.4246 88.5912C53.2023 88.5171 52.8867 88.3567 52.6054 88.0402L56.6379 84.4558C55.7223 83.4257 54.4945 83.2623 53.7576 83.2623V88.6577ZM52.8294 88.2643C52.5129 87.9829 52.3525 87.6674 52.2784 87.4451C52.2428 87.3382 52.2268 87.2532 52.2195 87.2C52.2121 87.1467 52.212 87.1156 52.212 87.112H57.6073C57.6073 86.3752 57.444 85.1474 56.4139 84.2317L52.8294 88.2643ZM52.212 87.112V99.528H57.6073V87.112H52.212ZM52.212 99.528C52.212 100.127 52.1838 100.671 52.1313 101.161L57.496 101.735C57.5715 101.031 57.6073 100.294 57.6073 99.528H52.212ZM52.1233 101.249C52.1041 101.508 52.019 101.946 51.7885 102.602L56.8788 104.39C57.203 103.467 57.4378 102.54 57.5039 101.647L52.1233 101.249ZM51.8017 102.565L50.2017 106.917L55.2656 108.779L56.8656 104.427L51.8017 102.565ZM50.1744 106.995C50.1754 106.992 50.1816 106.974 50.197 106.948C50.2125 106.921 50.2331 106.892 50.2575 106.865L54.2498 110.495C54.7315 109.965 55.0751 109.354 55.2929 108.701L50.1744 106.995ZM50.2485 106.875C50.4291 106.675 50.6577 106.515 50.9077 106.415C51.147 106.32 51.3445 106.302 51.4536 106.302V111.698C52.4017 111.698 53.4582 111.374 54.2588 110.485L50.2485 106.875ZM51.4536 106.302H47.1976V111.698H51.4536V106.302ZM47.1976 106.302C47.2248 106.302 47.2756 106.305 47.3426 106.322C47.4107 106.338 47.4813 106.365 47.5486 106.401L44.9907 111.151C45.6935 111.53 46.4482 111.698 47.1976 111.698V106.302ZM47.5486 106.401C47.7483 106.508 47.9416 106.669 48.095 106.877C48.244 107.078 48.3128 107.266 48.3428 107.386L43.1085 108.694C43.354 109.676 43.9629 110.598 44.9907 111.151L47.5486 106.401ZM48.3219 107.307L46.8499 102.091L41.6574 103.557L43.1294 108.773L48.3219 107.307ZM46.8375 102.049C46.7183 101.651 46.3783 100.69 45.3856 100.095L42.6097 104.721C42.1955 104.473 41.9606 104.163 41.8441 103.974C41.7284 103.786 41.6822 103.641 41.6697 103.599L46.8375 102.049ZM45.9052 100.5C45.2809 99.8761 44.4729 99.5823 43.6776 99.5823V104.978C43.4376 104.978 43.1515 104.937 42.8517 104.817C42.5489 104.696 42.2925 104.518 42.0901 104.316L45.9052 100.5ZM43.6776 99.5823H43.3896V104.978H43.6776V99.5823ZM43.3896 99.5823C42.6063 99.5823 41.9029 99.8611 41.3524 100.301L44.7229 104.515C44.3857 104.784 43.917 104.978 43.3896 104.978V99.5823ZM41.419 100.25C40.5848 100.876 40.3121 101.774 40.2297 102.049L45.3975 103.599C45.3968 103.602 45.3692 103.697 45.2929 103.839C45.2257 103.964 45.0392 104.279 44.6563 104.566L41.419 100.25ZM40.2216 102.077L38.7176 107.293L43.9017 108.787L45.4057 103.571L40.2216 102.077ZM38.7031 107.345C38.7246 107.264 38.7709 107.136 38.866 106.99C38.9637 106.841 39.0922 106.704 39.2429 106.594L42.4163 110.958C43.2212 110.372 43.6952 109.564 43.9162 108.735L38.7031 107.345ZM39.3813 106.5C39.6685 106.317 39.9108 106.302 39.9656 106.302V111.698C40.7031 111.698 41.5214 111.533 42.278 111.052L39.3813 106.5ZM39.9656 106.302H35.7416V111.698H39.9656V106.302ZM35.7416 106.302C35.8565 106.302 36.0056 106.321 36.169 106.379C36.3332 106.438 36.4696 106.522 36.5727 106.608L33.1186 110.752C33.8721 111.38 34.7859 111.698 35.7416 111.698V106.302ZM36.6603 106.684C36.7355 106.752 36.7953 106.827 36.8391 106.898C36.882 106.968 36.9015 107.021 36.9085 107.043L31.7588 108.653C31.9898 109.392 32.398 110.101 33.031 110.676L36.6603 106.684ZM36.87 106.929L35.27 102.513L30.1973 104.351L31.7973 108.767L36.87 106.929ZM35.2788 102.538C35.0421 101.864 34.9367 101.391 34.9028 101.086L29.5405 101.682C29.6346 102.529 29.8705 103.421 30.1885 104.326L35.2788 102.538ZM34.9125 101.192C34.8749 100.667 34.8553 100.091 34.8553 99.464H29.46C29.46 100.202 29.483 100.907 29.5308 101.576L34.9125 101.192ZM34.8553 99.464V87.112H29.46V99.464H34.8553ZM34.8553 87.112C34.8553 87.0846 34.8598 87.184 34.8082 87.3584C34.7539 87.5416 34.6223 87.8544 34.3212 88.1555L30.5061 84.3405C29.5783 85.2682 29.46 86.4493 29.46 87.112H34.8553ZM34.3212 88.1555C34.0702 88.4066 33.8023 88.5375 33.6072 88.6003C33.4249 88.6588 33.3099 88.6577 33.3096 88.6577V83.2623C32.5379 83.2623 31.4065 83.44 30.5061 84.3405L34.3212 88.1555ZM33.3096 88.6577H38.2376V83.2623H33.3096V88.6577ZM38.2376 88.6577C38.2341 88.6577 38.203 88.6576 38.1496 88.6502C38.0964 88.6428 38.0114 88.6269 37.9046 88.5912C37.6823 88.5171 37.3667 88.3567 37.0854 88.0402L41.1179 84.4558C40.2023 83.4257 38.9745 83.2623 38.2376 83.2623V88.6577ZM37.3094 88.2643C36.9929 87.9829 36.8325 87.6674 36.7584 87.4451C36.7228 87.3382 36.7068 87.2532 36.6995 87.2C36.6921 87.1467 36.692 87.1156 36.692 87.112H42.0873C42.0873 86.3752 41.924 85.1474 40.8939 84.2317L37.3094 88.2643ZM36.692 87.112V98.888H42.0873V87.112H36.692ZM41.8402 100.016L43.6962 95.984L38.7951 93.728L36.9391 97.76L41.8402 100.016ZM43.6865 96.0047C43.6788 96.0212 43.5518 96.272 43.1966 96.4632L40.6387 91.7128C39.7288 92.2027 39.1539 92.9655 38.8047 93.7073L43.6865 96.0047ZM43.1966 96.4632C42.9841 96.5776 42.8581 96.5617 42.9416 96.5617V91.1663C42.2145 91.1663 41.4058 91.2997 40.6387 91.7128L43.1966 96.4632ZM42.9416 96.5617H44.2856V91.1663H42.9416V96.5617ZM44.2856 96.5617C44.3691 96.5617 44.2432 96.5776 44.0307 96.4632L46.5886 91.7128C45.8214 91.2997 45.0128 91.1663 44.2856 91.1663V96.5617ZM44.0307 96.4632C43.6755 96.272 43.5485 96.0212 43.5407 96.0047L48.4225 93.7073C48.0734 92.9655 47.4985 92.2027 46.5886 91.7128L44.0307 96.4632ZM43.5311 95.984L45.3871 100.016L50.2882 97.76L48.4322 93.728L43.5311 95.984ZM50.5353 98.888V87.112H45.14V98.888H50.5353ZM50.5353 87.112C50.5353 87.0846 50.5398 87.184 50.4882 87.3584C50.4339 87.5416 50.3023 87.8544 50.0012 88.1555L46.1861 84.3405C45.2583 85.2682 45.14 86.4493 45.14 87.112H50.5353ZM50.0012 88.1555C49.7502 88.4066 49.4823 88.5375 49.2872 88.6003C49.1049 88.6588 48.9899 88.6577 48.9896 88.6577V83.2623C48.2179 83.2623 47.0865 83.44 46.1861 84.3405L50.0012 88.1555ZM59.2954 108.744L57.2791 110.536L57.3845 110.655L57.5032 110.76L59.2954 108.744ZM59.2954 86.248L57.3878 84.3405V84.3405L59.2954 86.248ZM75.9034 86.248L73.8871 88.0402L73.9925 88.1588L74.1112 88.2643L75.9034 86.248ZM66.2074 92.008V89.3103H63.5097V92.008H66.2074ZM66.2074 94.472H63.5097V97.1697H66.2074V94.472ZM73.3114 94.76L71.2951 96.5522L71.4006 96.6708L71.5191 96.7763L73.3114 94.76ZM73.3114 99.944L71.4038 98.0365L73.3114 99.944ZM66.2074 100.2V97.5023H63.5097V100.2H66.2074ZM66.2074 102.952H63.5097V105.65H66.2074V102.952ZM75.9034 103.24L73.8871 105.032L73.9926 105.151L74.1112 105.256L75.9034 103.24ZM75.9034 108.744L77.8109 110.652V110.652L75.9034 108.744ZM75.0394 106.302H60.1914V111.698H75.0394V106.302ZM60.1914 106.302C60.1676 106.302 60.2524 106.299 60.4045 106.342C60.5643 106.388 60.8243 106.494 61.0876 106.728L57.5032 110.76C58.4059 111.563 59.4887 111.698 60.1914 111.698V106.302ZM61.3117 106.952C61.5457 107.215 61.6516 107.475 61.6973 107.635C61.7407 107.787 61.7371 107.872 61.7371 107.848H56.3417C56.3417 108.551 56.4767 109.634 57.2791 110.536L61.3117 106.952ZM61.7371 107.848V87.112H56.3417V107.848H61.7371ZM61.7371 87.112C61.7371 87.0846 61.7416 87.184 61.6899 87.3584C61.6356 87.5416 61.5041 87.8544 61.2029 88.1555L57.3878 84.3405C56.4601 85.2682 56.3417 86.4493 56.3417 87.112H61.7371ZM61.2029 88.1555C60.9519 88.4066 60.684 88.5375 60.4889 88.6003C60.3066 88.6588 60.1916 88.6577 60.1914 88.6577V83.2623C59.4197 83.2623 58.2883 83.44 57.3878 84.3405L61.2029 88.1555ZM60.1914 88.6577H75.0394V83.2623H60.1914V88.6577ZM75.0394 88.6577C75.0358 88.6577 75.0047 88.6576 74.9514 88.6502C74.8982 88.6428 74.8132 88.6269 74.7063 88.5912C74.484 88.5171 74.1684 88.3567 73.8871 88.0402L77.9197 84.4558C77.004 83.4257 75.7762 83.2623 75.0394 83.2623V88.6577ZM74.1112 88.2643C73.7947 87.9829 73.6342 87.6674 73.5602 87.4451C73.5245 87.3382 73.5086 87.2532 73.5012 87.2C73.4938 87.1467 73.4937 87.1156 73.4937 87.112H78.8891C78.8891 86.3752 78.7257 85.1474 77.6956 84.2317L74.1112 88.2643ZM73.4937 87.112V90.856H78.8891V87.112H73.4937ZM73.4937 90.856C73.4937 90.8558 73.4925 90.7407 73.5511 90.5585C73.6138 90.3634 73.7448 90.0955 73.9958 89.8445L77.8109 93.6595C78.7113 92.7591 78.8891 91.6277 78.8891 90.856H73.4937ZM73.9958 89.8445C74.297 89.5433 74.6097 89.4118 74.793 89.3575C74.9674 89.3058 75.0668 89.3103 75.0394 89.3103V94.7057C75.7021 94.7057 76.8832 94.5873 77.8109 93.6595L73.9958 89.8445ZM75.0394 89.3103H66.2074V94.7057H75.0394V89.3103ZM63.5097 92.008V94.472H68.9051V92.008H63.5097ZM66.2074 97.1697H72.4474V91.7743H66.2074V97.1697ZM72.4474 97.1697C72.4438 97.1697 72.4127 97.1696 72.3594 97.1622C72.3062 97.1548 72.2212 97.1389 72.1143 97.1032C71.892 97.0291 71.5764 96.8687 71.2951 96.5522L75.3277 92.9678C74.412 91.9377 73.1842 91.7743 72.4474 91.7743V97.1697ZM71.5191 96.7763C71.2027 96.4949 71.0423 96.1794 70.9682 95.9571C70.9325 95.8502 70.9166 95.7652 70.9092 95.712C70.9018 95.6587 70.9017 95.6276 70.9017 95.624H76.2971C76.2971 94.8872 76.1337 93.6594 75.1036 92.7437L71.5191 96.7763ZM70.9017 95.624V99.048H76.2971V95.624H70.9017ZM70.9017 99.048C70.9017 99.0478 70.9005 98.9327 70.9591 98.7505C71.0218 98.5554 71.1528 98.2875 71.4038 98.0365L75.2189 101.852C76.1193 100.951 76.2971 99.8197 76.2971 99.048H70.9017ZM71.4038 98.0365C71.705 97.7353 72.0177 97.6038 72.201 97.5495C72.3754 97.4978 72.4748 97.5023 72.4474 97.5023V102.898C73.1101 102.898 74.2912 102.779 75.2189 101.852L71.4038 98.0365ZM72.4474 97.5023H66.2074V102.898H72.4474V97.5023ZM63.5097 100.2V102.952H68.9051V100.2H63.5097ZM66.2074 105.65H75.0394V100.254H66.2074V105.65ZM75.0394 105.65C75.0358 105.65 75.0047 105.65 74.9514 105.642C74.8982 105.635 74.8132 105.619 74.7063 105.583C74.484 105.509 74.1684 105.349 73.8871 105.032L77.9197 101.448C77.004 100.418 75.7762 100.254 75.0394 100.254V105.65ZM74.1112 105.256C73.7947 104.975 73.6342 104.659 73.5602 104.437C73.5245 104.33 73.5086 104.245 73.5012 104.192C73.4938 104.139 73.4937 104.108 73.4937 104.104H78.8891C78.8891 103.367 78.7257 102.139 77.6956 101.224L74.1112 105.256ZM73.4937 104.104V107.848H78.8891V104.104H73.4937ZM73.4937 107.848C73.4937 107.848 73.4925 107.733 73.5511 107.55C73.6138 107.355 73.7448 107.087 73.9958 106.836L77.8109 110.652C78.7113 109.751 78.8891 108.62 78.8891 107.848H73.4937ZM73.9958 106.836C74.297 106.535 74.6097 106.404 74.793 106.349C74.9674 106.298 75.0668 106.302 75.0394 106.302V111.698C75.7021 111.698 76.8832 111.579 77.8109 110.652L73.9958 106.836ZM80.2329 108.744L78.2166 110.536L78.3221 110.655L78.4407 110.76L80.2329 108.744ZM80.2329 86.248L78.3253 84.3405V84.3405L80.2329 86.248ZM86.9529 86.248L84.9366 88.0402L85.042 88.1588L85.1607 88.2643L86.9529 86.248ZM87.2409 102.952H84.5432V105.65H87.2409V102.952ZM91.6249 102.952V105.65H94.3226V102.952H91.6249ZM91.8809 96.904L89.9734 94.9965L89.9733 94.9965L91.8809 96.904ZM98.2809 96.904L96.2646 98.6962L96.37 98.8148L96.4887 98.9203L98.2809 96.904ZM98.2809 108.744L100.188 110.652L100.188 110.652L98.2809 108.744ZM97.4169 106.302H81.1289V111.698H97.4169V106.302ZM81.1289 106.302C81.1051 106.302 81.1899 106.299 81.342 106.342C81.5018 106.388 81.7618 106.494 82.0251 106.728L78.4407 110.76C79.3434 111.563 80.4262 111.698 81.1289 111.698V106.302ZM82.2492 106.952C82.4832 107.215 82.5891 107.475 82.6348 107.635C82.6782 107.787 82.6746 107.872 82.6746 107.848H77.2792C77.2792 108.551 77.4142 109.634 78.2166 110.536L82.2492 106.952ZM82.6746 107.848V87.112H77.2792V107.848H82.6746ZM82.6746 87.112C82.6746 87.0846 82.6791 87.184 82.6274 87.3584C82.5731 87.5416 82.4416 87.8544 82.1404 88.1555L78.3253 84.3405C77.3976 85.2682 77.2792 86.4493 77.2792 87.112H82.6746ZM82.1404 88.1555C81.8894 88.4066 81.6215 88.5375 81.4264 88.6003C81.2441 88.6588 81.1291 88.6577 81.1289 88.6577V83.2623C80.3572 83.2623 79.2258 83.44 78.3253 84.3405L82.1404 88.1555ZM81.1289 88.6577H86.0889V83.2623H81.1289V88.6577ZM86.0889 88.6577C86.0853 88.6577 86.0542 88.6576 86.0009 88.6502C85.9477 88.6428 85.8627 88.6269 85.7558 88.5912C85.5335 88.5171 85.2179 88.3567 84.9366 88.0402L88.9692 84.4558C88.0535 83.4257 86.8257 83.2623 86.0889 83.2623V88.6577ZM85.1607 88.2643C84.8442 87.9829 84.6837 87.6674 84.6096 87.4451C84.574 87.3382 84.5581 87.2532 84.5507 87.2C84.5433 87.1467 84.5432 87.1156 84.5432 87.112H89.9386C89.9386 86.3752 89.7752 85.1474 88.7451 84.2317L85.1607 88.2643ZM84.5432 87.112V102.952H89.9386V87.112H84.5432ZM87.2409 105.65H91.6249V100.254H87.2409V105.65ZM94.3226 102.952V97.768H88.9272V102.952H94.3226ZM94.3226 97.768C94.3226 97.7406 94.3271 97.84 94.2754 98.0144C94.2211 98.1976 94.0896 98.5104 93.7884 98.8115L89.9733 94.9965C89.0456 95.9242 88.9272 97.1053 88.9272 97.768H94.3226ZM93.7884 98.8115C93.5374 99.0626 93.2695 99.1935 93.0744 99.2563C92.8922 99.3148 92.7771 99.3137 92.7769 99.3137V93.9183C92.0052 93.9183 90.8738 94.096 89.9734 94.9965L93.7884 98.8115ZM92.7769 99.3137H97.4169V93.9183H92.7769V99.3137ZM97.4169 99.3137C97.4133 99.3137 97.3822 99.3136 97.3289 99.3062C97.2757 99.2988 97.1907 99.2829 97.0838 99.2472C96.8615 99.1731 96.5459 99.0127 96.2646 98.6962L100.297 95.1118C99.3815 94.0817 98.1537 93.9183 97.4169 93.9183V99.3137ZM96.4887 98.9203C96.1722 98.6389 96.0117 98.3234 95.9377 98.1011C95.902 97.9942 95.8861 97.9092 95.8787 97.856C95.8713 97.8027 95.8712 97.7716 95.8712 97.768H101.267C101.267 97.0312 101.103 95.8034 100.073 94.8877L96.4887 98.9203ZM95.8712 97.768V107.848H101.267V97.768H95.8712ZM95.8712 107.848C95.8712 107.848 95.87 107.733 95.9286 107.55C95.9913 107.355 96.1223 107.087 96.3733 106.836L100.188 110.652C101.089 109.751 101.267 108.62 101.267 107.848H95.8712ZM96.3734 106.836C96.6745 106.535 96.9872 106.404 97.1705 106.349C97.3449 106.298 97.4443 106.302 97.4169 106.302V111.698C98.0796 111.698 99.2607 111.579 100.188 110.652L96.3734 106.836ZM103.795 107.4L102.068 109.472L102.076 109.479L102.085 109.486L103.795 107.4ZM103.795 87.592L105.522 89.6644L105.525 89.6616L103.795 87.592ZM118.419 86.248L116.403 88.0402L116.508 88.1588L116.627 88.2643L118.419 86.248ZM109.651 92.552L111.336 94.6585L111.378 94.6254L111.418 94.5906L109.651 92.552ZM109.651 102.536L107.966 104.643L108.01 104.678L108.056 104.711L109.651 102.536ZM118.419 103.176L116.403 104.968L116.508 105.087L116.627 105.192L118.419 103.176ZM118.419 108.744L120.326 110.652L120.326 110.652L118.419 108.744ZM117.555 106.302H109.747V111.698H117.555V106.302ZM109.747 106.302C107.361 106.302 106.113 105.812 105.505 105.314L102.085 109.486C104.08 111.121 106.799 111.698 109.747 111.698V106.302ZM105.522 105.328C105.045 104.93 104.573 104.173 104.573 102.472H99.1772C99.1772 105.209 99.9844 107.736 102.068 109.472L105.522 105.328ZM104.573 102.472V92.52H99.1772V102.472H104.573ZM104.573 92.52C104.573 90.8192 105.045 90.0615 105.522 89.6644L102.068 85.5196C99.9844 87.2558 99.1772 89.7834 99.1772 92.52H104.573ZM105.525 89.6616C106.131 89.155 107.371 88.6577 109.747 88.6577V83.2623C106.79 83.2623 104.061 83.853 102.065 85.5224L105.525 89.6616ZM109.747 88.6577H117.555V83.2623H109.747V88.6577ZM117.555 88.6577C117.551 88.6577 117.52 88.6576 117.467 88.6502C117.414 88.6428 117.329 88.6269 117.222 88.5912C117 88.5171 116.684 88.3567 116.403 88.0402L120.435 84.4558C119.52 83.4257 118.292 83.2623 117.555 83.2623V88.6577ZM116.627 88.2643C116.31 87.9829 116.15 87.6674 116.076 87.4451C116.04 87.3382 116.024 87.2532 116.017 87.2C116.009 87.1467 116.009 87.1156 116.009 87.112H121.405C121.405 86.3752 121.241 85.1474 120.211 84.2317L116.627 88.2643ZM116.009 87.112V90.984H121.405V87.112H116.009ZM116.009 90.984C116.009 90.9838 116.008 90.8687 116.067 90.6865C116.129 90.4914 116.26 90.2235 116.511 89.9725L120.326 93.7875C121.227 92.8871 121.405 91.7557 121.405 90.984H116.009ZM116.511 89.9725C116.812 89.6713 117.125 89.5398 117.309 89.4855C117.483 89.4338 117.582 89.4383 117.555 89.4383V94.8337C118.218 94.8337 119.399 94.7153 120.326 93.7875L116.511 89.9725ZM117.555 89.4383H111.123V94.8337H117.555V89.4383ZM111.123 89.4383C110.16 89.4383 108.905 89.6284 107.884 90.5134L111.418 94.5906C111.224 94.7588 111.052 94.8193 110.993 94.836C110.941 94.8507 110.971 94.8337 111.123 94.8337V89.4383ZM107.966 90.4455C106.823 91.3598 106.473 92.6503 106.473 93.736H111.869C111.869 93.7365 111.869 93.7666 111.859 93.8204C111.85 93.8748 111.831 93.9557 111.791 94.0535C111.704 94.2668 111.551 94.4864 111.336 94.6585L107.966 90.4455ZM106.473 93.736V101.352H111.869V93.736H106.473ZM106.473 101.352C106.473 102.438 106.823 103.728 107.966 104.643L111.336 100.429C111.551 100.602 111.704 100.821 111.791 101.034C111.831 101.132 111.85 101.213 111.859 101.268C111.869 101.321 111.869 101.352 111.869 101.352H106.473ZM108.056 104.711C109.056 105.445 110.235 105.586 111.123 105.586V100.19C111.036 100.19 110.974 100.186 110.932 100.182C110.89 100.178 110.877 100.174 110.886 100.176C110.899 100.179 111.05 100.216 111.246 100.361L108.056 104.711ZM111.123 105.586H117.555V100.19H111.123V105.586ZM117.555 105.586C117.551 105.586 117.52 105.586 117.467 105.578C117.414 105.571 117.329 105.555 117.222 105.519C117 105.445 116.684 105.285 116.403 104.968L120.435 101.384C119.52 100.354 118.292 100.19 117.555 100.19V105.586ZM116.627 105.192C116.31 104.911 116.15 104.595 116.076 104.373C116.04 104.266 116.024 104.181 116.017 104.128C116.009 104.075 116.009 104.044 116.009 104.04H121.405C121.405 103.303 121.241 102.075 120.211 101.16L116.627 105.192ZM116.009 104.04V107.848H121.405V104.04H116.009ZM116.009 107.848C116.009 107.848 116.008 107.733 116.067 107.55C116.129 107.355 116.26 107.087 116.511 106.836L120.326 110.652C121.227 109.751 121.405 108.62 121.405 107.848H116.009ZM116.511 106.836C116.812 106.535 117.125 106.404 117.309 106.349C117.483 106.298 117.582 106.302 117.555 106.302V111.698C118.218 111.698 119.399 111.579 120.326 110.652L116.511 106.836ZM141.236 105.64L138.705 104.707L138.698 104.727L138.691 104.746L141.236 105.64ZM139.7 107.688L141.339 109.831L141.348 109.824L139.7 107.688ZM136.66 109L136.016 106.38L136.006 106.383L136.66 109ZM126.836 109L126.192 111.62L126.836 109ZM123.764 107.688L122.087 109.801L122.121 109.828L122.156 109.854L123.764 107.688ZM122.228 105.64L119.676 106.513L119.69 106.554L119.705 106.595L122.228 105.64ZM122.228 89.384L119.697 88.4514L119.69 88.4705L119.683 88.4898L122.228 89.384ZM123.764 87.304L122.117 85.168L122.102 85.1796L122.087 85.1914L123.764 87.304ZM126.836 85.96L126.192 83.3404L126.836 85.96ZM136.66 85.96L136.006 88.5771L136.016 88.5796L136.66 85.96ZM139.7 87.304L138.023 89.4166L138.038 89.4284L138.053 89.44L139.7 87.304ZM141.236 89.384L138.684 90.2572L138.698 90.2982L138.713 90.3387L141.236 89.384ZM129.556 102.888L127.716 104.86L127.752 104.894L127.79 104.927L129.556 102.888ZM133.972 102.888L135.739 104.927L135.777 104.894L135.813 104.86L133.972 102.888ZM133.972 92.168L132.132 94.1402L132.168 94.1741L132.206 94.2066L133.972 92.168ZM129.556 92.168L131.323 94.2066L131.361 94.1741L131.397 94.1402L129.556 92.168ZM138.987 102.952C138.987 103.658 138.88 104.233 138.705 104.707L143.768 106.573C144.19 105.426 144.382 104.209 144.382 102.952H138.987ZM138.691 104.746C138.608 104.982 138.441 105.253 138.053 105.552L141.348 109.824C142.454 108.971 143.31 107.876 143.782 106.534L138.691 104.746ZM138.062 105.545C137.736 105.794 137.111 106.111 136.016 106.38L137.305 111.62C138.812 111.249 140.214 110.691 141.339 109.831L138.062 105.545ZM136.006 106.383C135.018 106.63 133.627 106.782 131.764 106.782V112.178C133.87 112.178 135.742 112.01 137.315 111.617L136.006 106.383ZM131.764 106.782C129.904 106.782 128.497 106.63 127.481 106.38L126.192 111.62C127.779 112.01 129.657 112.178 131.764 112.178V106.782ZM127.481 106.38C126.386 106.111 125.734 105.791 125.373 105.522L122.156 109.854C123.288 110.695 124.684 111.249 126.192 111.62L127.481 106.38ZM125.442 105.575C125.059 105.272 124.861 104.976 124.751 104.685L119.705 106.595C120.193 107.883 121.019 108.952 122.087 109.801L125.442 105.575ZM124.781 104.767C124.613 104.275 124.51 103.679 124.51 102.952H119.115C119.115 104.188 119.29 105.384 119.676 106.513L124.781 104.767ZM124.51 102.952V92.04H119.115V102.952H124.51ZM124.51 92.04C124.51 91.3117 124.613 90.7354 124.774 90.2782L119.683 88.4898C119.289 89.6113 119.115 90.8056 119.115 92.04H124.51ZM124.76 90.3166C124.875 90.0037 125.075 89.708 125.442 89.4166L122.087 85.1914C121.003 86.052 120.179 87.143 119.697 88.4514L124.76 90.3166ZM125.412 89.44C125.764 89.1685 126.401 88.845 127.481 88.5796L126.192 83.3404C124.669 83.715 123.258 84.2875 122.117 85.168L125.412 89.44ZM127.481 88.5796C128.497 88.3298 129.904 88.1777 131.764 88.1777V82.7823C129.657 82.7823 127.779 82.9502 126.192 83.3404L127.481 88.5796ZM131.764 88.1777C133.627 88.1777 135.018 88.3302 136.006 88.5771L137.315 83.3429C135.742 82.9498 133.87 82.7823 131.764 82.7823V88.1777ZM136.016 88.5796C137.096 88.8452 137.706 89.1649 138.023 89.4166L141.378 85.1914C140.244 84.2911 138.827 83.7148 137.305 83.3404L136.016 88.5796ZM138.053 89.44C138.424 89.7267 138.595 89.997 138.684 90.2572L143.789 88.5108C143.323 87.1497 142.47 86.0333 141.348 85.168L138.053 89.44ZM138.713 90.3387C138.879 90.7777 138.987 91.3326 138.987 92.04H144.382C144.382 90.7847 144.191 89.569 143.759 88.4293L138.713 90.3387ZM138.987 92.04V102.952H144.382V92.04H138.987ZM126.379 101.8C126.379 102.996 126.865 104.066 127.716 104.86L131.397 100.916C131.476 100.989 131.583 101.117 131.665 101.303C131.747 101.49 131.774 101.667 131.774 101.8H126.379ZM127.79 104.927C128.492 105.535 129.324 105.752 129.849 105.851C130.444 105.963 131.1 106.002 131.764 106.002V100.606C131.529 100.606 131.334 100.599 131.176 100.588C131.016 100.576 130.91 100.561 130.848 100.549C130.781 100.536 130.796 100.534 130.863 100.56C130.925 100.584 131.109 100.664 131.323 100.849L127.79 104.927ZM131.764 106.002C132.429 106.002 133.084 105.963 133.68 105.851C134.205 105.752 135.037 105.535 135.739 104.927L132.206 100.849C132.42 100.664 132.604 100.584 132.666 100.56C132.733 100.534 132.747 100.536 132.681 100.549C132.619 100.561 132.513 100.576 132.353 100.588C132.195 100.599 132 100.606 131.764 100.606V106.002ZM135.813 104.86C136.664 104.066 137.15 102.996 137.15 101.8H131.755C131.755 101.667 131.782 101.49 131.864 101.303C131.946 101.117 132.053 100.989 132.132 100.916L135.813 104.86ZM137.15 101.8V93.192H131.755V101.8H137.15ZM137.15 93.192C137.15 91.9653 136.62 90.893 135.739 90.1294L132.206 94.2066C132.116 94.1285 131.989 93.9881 131.89 93.777C131.789 93.5629 131.755 93.3548 131.755 93.192H137.15ZM135.813 90.1958C135.113 89.542 134.265 89.2995 133.717 89.1882C133.105 89.0641 132.436 89.0223 131.764 89.0223V94.4177C131.996 94.4177 132.186 94.4252 132.338 94.4373C132.492 94.4494 132.59 94.4649 132.644 94.4758C132.702 94.4875 132.677 94.4879 132.601 94.4554C132.528 94.4244 132.341 94.3357 132.132 94.1402L135.813 90.1958ZM131.764 89.0223C131.093 89.0223 130.424 89.0641 129.812 89.1882C129.263 89.2995 128.416 89.542 127.716 90.1958L131.397 94.1402C131.188 94.3357 131.001 94.4244 130.928 94.4554C130.851 94.4879 130.827 94.4875 130.885 94.4758C130.939 94.4649 131.037 94.4494 131.191 94.4373C131.343 94.4252 131.533 94.4177 131.764 94.4177V89.0223ZM127.79 90.1294C126.909 90.893 126.379 91.9653 126.379 93.192H131.774C131.774 93.3548 131.739 93.5629 131.639 93.777C131.54 93.9881 131.413 94.1285 131.323 94.2066L127.79 90.1294ZM126.379 93.192V101.8H131.774V93.192H126.379ZM146.014 108.744L143.998 110.536L144.103 110.655L144.222 110.76L146.014 108.744ZM146.014 86.248L144.107 84.3405V84.3405L146.014 86.248ZM152.894 86.184L151.347 88.394L151.396 88.4281L151.446 88.4599L152.894 86.184ZM153.534 86.92L155.896 85.616L155.891 85.6067L155.885 85.5974L153.534 86.92ZM156.414 92.136L154.053 93.44L154.056 93.4461L156.414 92.136ZM156.67 92.552L154.512 94.1706L154.627 94.324L154.763 94.4596L156.67 92.552ZM157.566 92.552L155.659 90.6445L155.523 90.78L155.408 90.9334L157.566 92.552ZM157.854 92.136L160.212 93.4461L160.217 93.4375L160.222 93.4288L157.854 92.136ZM160.702 86.92L158.351 85.5974L158.343 85.6123L158.334 85.6272L160.702 86.92ZM161.31 86.184L159.862 83.9081L159.812 83.9399L159.763 83.974L161.31 86.184ZM168.222 86.248L166.206 88.0402L166.311 88.1588L166.43 88.2643L168.222 86.248ZM168.222 108.744L170.13 110.652V110.652L168.222 108.744ZM161.534 108.744L159.518 110.536L159.623 110.655L159.742 110.76L161.534 108.744ZM161.278 96.584H163.976L158.906 95.2998L161.278 96.584ZM159.39 100.072L157.018 98.7878L157.012 98.7988L157.006 98.8098L159.39 100.072ZM158.686 100.872L160.045 103.202L160.073 103.186L160.1 103.169L158.686 100.872ZM155.39 100.872L153.894 103.117L153.999 103.187L154.111 103.247L155.39 100.872ZM154.718 100.072L157.102 98.8098L157.096 98.7988L157.091 98.7878L154.718 100.072ZM152.83 96.584L155.203 95.2998L150.132 96.584H152.83ZM152.542 108.744L154.45 110.652L154.45 110.652L152.542 108.744ZM151.678 106.302H146.91V111.698H151.678V106.302ZM146.91 106.302C146.886 106.302 146.971 106.299 147.123 106.342C147.283 106.388 147.543 106.494 147.806 106.728L144.222 110.76C145.125 111.563 146.207 111.698 146.91 111.698V106.302ZM148.03 106.952C148.264 107.215 148.37 107.475 148.416 107.635C148.459 107.787 148.456 107.872 148.456 107.848H143.06C143.06 108.551 143.195 109.634 143.998 110.536L148.03 106.952ZM148.456 107.848V87.112H143.06V107.848H148.456ZM148.456 87.112C148.456 87.0846 148.46 87.184 148.409 87.3584C148.354 87.5416 148.223 87.8544 147.922 88.1555L144.107 84.3405C143.179 85.2682 143.06 86.4493 143.06 87.112H148.456ZM147.922 88.1555C147.671 88.4066 147.403 88.5375 147.208 88.6003C147.025 88.6588 146.91 88.6577 146.91 88.6577V83.2623C146.138 83.2623 145.007 83.44 144.107 84.3405L147.922 88.1555ZM146.91 88.6577H152.062V83.2623H146.91V88.6577ZM152.062 88.6577C152.02 88.6577 151.709 88.6475 151.347 88.394L154.441 83.974C153.652 83.4218 152.786 83.2623 152.062 83.2623V88.6577ZM151.446 88.4599C151.311 88.374 151.23 88.2913 151.194 88.2502C151.16 88.2101 151.159 88.2002 151.183 88.2426L155.885 85.5974C155.559 85.0177 155.074 84.3734 154.342 83.9081L151.446 88.4599ZM151.173 88.2239L154.053 93.44L158.776 90.832L155.896 85.616L151.173 88.2239ZM154.056 93.4461C154.174 93.658 154.332 93.9307 154.512 94.1706L158.828 90.9334C158.849 90.9607 158.861 90.9783 158.863 90.9816C158.865 90.9857 158.863 90.9825 158.856 90.9702C158.84 90.9443 158.812 90.8981 158.772 90.8259L154.056 93.4461ZM154.763 94.4596C155.387 95.0839 156.195 95.3777 156.99 95.3777V89.9823C157.23 89.9823 157.516 90.0234 157.816 90.1433C158.119 90.2644 158.375 90.4421 158.578 90.6444L154.763 94.4596ZM156.99 95.3777H157.278V89.9823H156.99V95.3777ZM157.278 95.3777C158.064 95.3777 159.046 95.0747 159.724 94.1706L155.408 90.9334C155.648 90.6138 155.971 90.3514 156.351 90.1828C156.714 90.0212 157.045 89.9823 157.278 89.9823V95.3777ZM159.474 94.4595C159.826 94.1076 160.066 93.7092 160.212 93.4461L155.496 90.8259C155.474 90.8662 155.469 90.8698 155.484 90.8485C155.492 90.8367 155.509 90.813 155.535 90.7806C155.561 90.7489 155.602 90.7011 155.659 90.6445L159.474 94.4595ZM160.222 93.4288L163.07 88.2128L158.334 85.6272L155.486 90.8432L160.222 93.4288ZM163.053 88.2426C163.088 88.181 163.099 88.1729 163.078 88.1981C163.058 88.2228 162.988 88.3026 162.857 88.394L159.763 83.974C159.094 84.4422 158.65 85.0657 158.351 85.5974L163.053 88.2426ZM162.758 88.4599C162.471 88.6427 162.229 88.6577 162.174 88.6577V83.2623C161.437 83.2623 160.618 83.4266 159.862 83.9081L162.758 88.4599ZM162.174 88.6577H167.358V83.2623H162.174V88.6577ZM167.358 88.6577C167.355 88.6577 167.323 88.6576 167.27 88.6502C167.217 88.6428 167.132 88.6269 167.025 88.5912C166.803 88.5171 166.487 88.3567 166.206 88.0402L170.238 84.4558C169.323 83.4257 168.095 83.2623 167.358 83.2623V88.6577ZM166.43 88.2643C166.113 87.9829 165.953 87.6674 165.879 87.4451C165.843 87.3382 165.827 87.2532 165.82 87.2C165.813 87.1467 165.812 87.1156 165.812 87.112H171.208C171.208 86.3752 171.044 85.1474 170.014 84.2317L166.43 88.2643ZM165.812 87.112V107.848H171.208V87.112H165.812ZM165.812 107.848C165.812 107.848 165.811 107.733 165.87 107.55C165.933 107.355 166.064 107.087 166.315 106.836L170.13 110.652C171.03 109.751 171.208 108.62 171.208 107.848H165.812ZM166.315 106.836C166.616 106.535 166.928 106.404 167.112 106.349C167.286 106.298 167.386 106.302 167.358 106.302V111.698C168.021 111.698 169.202 111.579 170.13 110.652L166.315 106.836ZM167.358 106.302H162.43V111.698H167.358V106.302ZM162.43 106.302C162.406 106.302 162.491 106.299 162.643 106.342C162.803 106.388 163.063 106.494 163.326 106.728L159.742 110.76C160.645 111.563 161.727 111.698 162.43 111.698V106.302ZM163.55 106.952C163.784 107.215 163.89 107.475 163.936 107.635C163.979 107.787 163.976 107.872 163.976 107.848H158.58C158.58 108.551 158.715 109.634 159.518 110.536L163.55 106.952ZM163.976 107.848V96.584H158.58V107.848H163.976ZM158.906 95.2998L157.018 98.7878L161.763 101.356L163.651 97.8682L158.906 95.2998ZM157.006 98.8098C156.981 98.8562 157.046 98.7139 157.272 98.5745L160.1 103.169C160.881 102.689 161.415 102.013 161.774 101.334L157.006 98.8098ZM157.327 98.5418C157.608 98.3778 157.79 98.3983 157.694 98.3983V103.794C158.409 103.794 159.252 103.665 160.045 103.202L157.327 98.5418ZM157.694 98.3983H156.414V103.794H157.694V98.3983ZM156.414 98.3983C156.331 98.3983 156.457 98.3824 156.669 98.4968L154.111 103.247C154.878 103.66 155.687 103.794 156.414 103.794V98.3983ZM156.887 98.6274C157.107 98.7745 157.152 98.9034 157.102 98.8098L152.334 101.334C152.668 101.966 153.161 102.628 153.894 103.117L156.887 98.6274ZM157.091 98.7878L155.203 95.2998L150.458 97.8682L152.346 101.356L157.091 98.7878ZM150.132 96.584V107.848H155.528V96.584H150.132ZM150.132 107.848C150.132 107.848 150.131 107.733 150.19 107.55C150.253 107.355 150.384 107.087 150.635 106.836L154.45 110.652C155.35 109.751 155.528 108.62 155.528 107.848H150.132ZM150.635 106.836C150.936 106.535 151.248 106.404 151.432 106.349C151.606 106.298 151.706 106.302 151.678 106.302V111.698C152.341 111.698 153.522 111.579 154.45 110.652L150.635 106.836ZM173.17 108.744L171.154 110.536L171.26 110.655L171.378 110.76L173.17 108.744ZM173.17 86.248L171.263 84.3405V84.3405L173.17 86.248ZM189.778 86.248L187.762 88.0402L187.868 88.1588L187.986 88.2643L189.778 86.248ZM180.082 92.008V89.3103H177.385V92.008H180.082ZM180.082 94.472H177.385V97.1697H180.082V94.472ZM187.186 94.76L185.17 96.5522L185.276 96.6708L185.394 96.7763L187.186 94.76ZM187.186 99.944L185.279 98.0365L187.186 99.944ZM180.082 100.2V97.5023H177.385V100.2H180.082ZM180.082 102.952H177.385V105.65H180.082V102.952ZM189.778 103.24L187.762 105.032L187.868 105.151L187.986 105.256L189.778 103.24ZM189.778 108.744L191.686 110.652V110.652L189.778 108.744ZM188.914 106.302H174.066V111.698H188.914V106.302ZM174.066 106.302C174.043 106.302 174.127 106.299 174.279 106.342C174.439 106.388 174.699 106.494 174.963 106.728L171.378 110.76C172.281 111.563 173.364 111.698 174.066 111.698V106.302ZM175.187 106.952C175.421 107.215 175.527 107.475 175.572 107.635C175.616 107.787 175.612 107.872 175.612 107.848H170.217C170.217 108.551 170.352 109.634 171.154 110.536L175.187 106.952ZM175.612 107.848V87.112H170.217V107.848H175.612ZM175.612 87.112C175.612 87.0846 175.617 87.184 175.565 87.3584C175.511 87.5416 175.379 87.8544 175.078 88.1555L171.263 84.3405C170.335 85.2682 170.217 86.4493 170.217 87.112H175.612ZM175.078 88.1555C174.827 88.4066 174.559 88.5375 174.364 88.6003C174.182 88.6588 174.067 88.6577 174.066 88.6577V83.2623C173.295 83.2623 172.163 83.44 171.263 84.3405L175.078 88.1555ZM174.066 88.6577H188.914V83.2623H174.066V88.6577ZM188.914 88.6577C188.911 88.6577 188.88 88.6576 188.826 88.6502C188.773 88.6428 188.688 88.6269 188.581 88.5912C188.359 88.5171 188.043 88.3567 187.762 88.0402L191.795 84.4558C190.879 83.4257 189.651 83.2623 188.914 83.2623V88.6577ZM187.986 88.2643C187.67 87.9829 187.509 87.6674 187.435 87.4451C187.4 87.3382 187.384 87.2532 187.376 87.2C187.369 87.1467 187.369 87.1156 187.369 87.112H192.764C192.764 86.3752 192.601 85.1474 191.571 84.2317L187.986 88.2643ZM187.369 87.112V90.856H192.764V87.112H187.369ZM187.369 90.856C187.369 90.8558 187.368 90.7407 187.426 90.5585C187.489 90.3634 187.62 90.0955 187.871 89.8445L191.686 93.6595C192.586 92.7591 192.764 91.6277 192.764 90.856H187.369ZM187.871 89.8445C188.172 89.5433 188.485 89.4118 188.668 89.3575C188.842 89.3058 188.942 89.3103 188.914 89.3103V94.7057C189.577 94.7057 190.758 94.5873 191.686 93.6595L187.871 89.8445ZM188.914 89.3103H180.082V94.7057H188.914V89.3103ZM177.385 92.008V94.472H182.78V92.008H177.385ZM180.082 97.1697H186.322V91.7743H180.082V97.1697ZM186.322 97.1697C186.319 97.1697 186.288 97.1696 186.234 97.1622C186.181 97.1548 186.096 97.1389 185.989 97.1032C185.767 97.0291 185.451 96.8687 185.17 96.5522L189.203 92.9678C188.287 91.9377 187.059 91.7743 186.322 91.7743V97.1697ZM185.394 96.7763C185.078 96.4949 184.917 96.1794 184.843 95.9571C184.808 95.8502 184.792 95.7652 184.784 95.712C184.777 95.6587 184.777 95.6276 184.777 95.624H190.172C190.172 94.8872 190.009 93.6594 188.979 92.7437L185.394 96.7763ZM184.777 95.624V99.048H190.172V95.624H184.777ZM184.777 99.048C184.777 99.0478 184.776 98.9327 184.834 98.7505C184.897 98.5554 185.028 98.2875 185.279 98.0365L189.094 101.852C189.994 100.951 190.172 99.8197 190.172 99.048H184.777ZM185.279 98.0365C185.58 97.7353 185.893 97.6038 186.076 97.5495C186.25 97.4978 186.35 97.5023 186.322 97.5023V102.898C186.985 102.898 188.166 102.779 189.094 101.852L185.279 98.0365ZM186.322 97.5023H180.082V102.898H186.322V97.5023ZM177.385 100.2V102.952H182.78V100.2H177.385ZM180.082 105.65H188.914V100.254H180.082V105.65ZM188.914 105.65C188.911 105.65 188.88 105.65 188.826 105.642C188.773 105.635 188.688 105.619 188.581 105.583C188.359 105.509 188.043 105.349 187.762 105.032L191.795 101.448C190.879 100.418 189.651 100.254 188.914 100.254V105.65ZM187.986 105.256C187.67 104.975 187.509 104.659 187.435 104.437C187.4 104.33 187.384 104.245 187.376 104.192C187.369 104.139 187.369 104.108 187.369 104.104H192.764C192.764 103.367 192.601 102.139 191.571 101.224L187.986 105.256ZM187.369 104.104V107.848H192.764V104.104H187.369ZM187.369 107.848C187.369 107.848 187.368 107.733 187.426 107.55C187.489 107.355 187.62 107.087 187.871 106.836L191.686 110.652C192.586 109.751 192.764 108.62 192.764 107.848H187.369ZM187.871 106.836C188.172 106.535 188.485 106.404 188.668 106.349C188.842 106.298 188.942 106.302 188.914 106.302V111.698C189.577 111.698 190.758 111.579 191.686 110.652L187.871 106.836ZM201.295 108.744L199.279 110.536L199.385 110.655L199.503 110.76L201.295 108.744ZM201.295 86.248L199.388 84.3405V84.3405L201.295 86.248ZM217.039 87.176L215.343 89.2738L215.357 89.2848L215.371 89.2957L217.039 87.176ZM218.063 94.6L215.705 93.2899L215.697 93.3054L215.688 93.321L218.063 94.6ZM216.655 95.848L215.583 93.3727L216.404 98.5339L216.655 95.848ZM219.695 97.256L217.605 98.9613V98.9613L219.695 97.256ZM219.151 107.72L217.424 105.648L217.414 105.657L217.403 105.666L219.151 107.72ZM208.239 91.4V88.7023H205.542V91.4H208.239ZM208.239 94.856H205.542V97.5537H208.239V94.856ZM211.855 94.536L209.948 92.6285L209.898 92.6786L209.85 92.7314L211.855 94.536ZM211.855 91.72L209.85 93.5246L209.898 93.5774L209.948 93.6275L211.855 91.72ZM208.239 99.784V97.0863H205.542V99.784H208.239ZM208.239 103.56H205.542V106.258H208.239V103.56ZM213.295 103.24L211.388 101.332L211.338 101.383L211.29 101.435L213.295 103.24ZM213.295 100.104L211.29 101.909L211.385 102.014L211.491 102.109L213.295 100.104ZM214.479 106.302H202.191V111.698H214.479V106.302ZM202.191 106.302C202.168 106.302 202.252 106.299 202.404 106.342C202.564 106.388 202.824 106.494 203.088 106.728L199.503 110.76C200.406 111.563 201.489 111.698 202.191 111.698V106.302ZM203.312 106.952C203.546 107.215 203.652 107.475 203.697 107.635C203.741 107.787 203.737 107.872 203.737 107.848H198.342C198.342 108.551 198.477 109.634 199.279 110.536L203.312 106.952ZM203.737 107.848V87.112H198.342V107.848H203.737ZM203.737 87.112C203.737 87.0846 203.742 87.184 203.69 87.3584C203.636 87.5416 203.504 87.8544 203.203 88.1555L199.388 84.3405C198.46 85.2682 198.342 86.4493 198.342 87.112H203.737ZM203.203 88.1555C202.952 88.4066 202.684 88.5375 202.489 88.6003C202.307 88.6588 202.192 88.6577 202.191 88.6577V83.2623C201.42 83.2623 200.288 83.44 199.388 84.3405L203.203 88.1555ZM202.191 88.6577H212.399V83.2623H202.191V88.6577ZM212.399 88.6577C214.229 88.6577 215.039 89.028 215.343 89.2738L218.735 85.0782C217.034 83.7027 214.751 83.2623 212.399 83.2623V88.6577ZM215.371 89.2957C215.536 89.4258 215.846 89.7465 215.846 90.856H221.241C221.241 88.6375 220.548 86.5048 218.708 85.0563L215.371 89.2957ZM215.846 90.856V92.392H221.241V90.856H215.846ZM215.846 92.392C215.846 92.9874 215.737 93.2331 215.705 93.2899L220.422 95.9101C221.03 94.8149 221.241 93.5886 221.241 92.392H215.846ZM215.688 93.321C215.687 93.3232 215.688 93.3208 215.692 93.3161C215.696 93.3115 215.698 93.309 215.698 93.3092C215.698 93.3096 215.691 93.3158 215.674 93.3264C215.656 93.3371 215.627 93.3534 215.583 93.3727L217.728 98.3233C218.861 97.8323 219.821 97.0251 220.439 95.879L215.688 93.321ZM216.404 98.5339C217.282 98.6163 217.53 98.869 217.605 98.9613L221.786 95.5507C220.538 94.0217 218.759 93.3357 216.907 93.1621L216.404 98.5339ZM217.605 98.9613C217.722 99.1043 217.99 99.5796 217.99 100.808H223.385C223.385 98.9217 222.992 97.029 221.786 95.5507L217.605 98.9613ZM217.99 100.808V103.752H223.385V100.808H217.99ZM217.99 103.752C217.99 105.036 217.639 105.469 217.424 105.648L220.878 109.792C222.712 108.265 223.385 106.052 223.385 103.752H217.99ZM217.403 105.666C217.108 105.917 216.314 106.302 214.479 106.302V111.698C216.868 111.698 219.19 111.23 220.9 109.774L217.403 105.666ZM205.542 91.4V94.856H210.937V91.4H205.542ZM208.239 97.5537H210.959V92.1583H208.239V97.5537ZM210.959 97.5537C211.805 97.5537 212.974 97.3256 213.861 96.3406L209.85 92.7314C210.353 92.1731 210.924 92.1583 210.959 92.1583V97.5537ZM213.763 96.4435C214.661 95.5459 214.873 94.4185 214.873 93.576H209.478C209.478 93.5726 209.477 93.4598 209.536 93.2829C209.599 93.093 209.725 92.8513 209.948 92.6285L213.763 96.4435ZM214.873 93.576V92.68H209.478V93.576H214.873ZM214.873 92.68C214.873 91.8375 214.661 90.7101 213.763 89.8125L209.948 93.6275C209.725 93.4047 209.599 93.163 209.536 92.9731C209.477 92.7962 209.478 92.6834 209.478 92.68H214.873ZM213.861 89.9154C212.974 88.9304 211.805 88.7023 210.959 88.7023V94.0977C210.924 94.0977 210.353 94.0829 209.85 93.5246L213.861 89.9154ZM210.959 88.7023H208.239V94.0977H210.959V88.7023ZM205.542 99.784V103.56H210.937V99.784H205.542ZM208.239 106.258H212.399V100.862H208.239V106.258ZM212.399 106.258C213.245 106.258 214.414 106.03 215.301 105.045L211.29 101.435C211.793 100.877 212.364 100.862 212.399 100.862V106.258ZM215.203 105.148C216.101 104.25 216.313 103.122 216.313 102.28H210.918C210.918 102.277 210.917 102.164 210.976 101.987C211.039 101.797 211.165 101.555 211.388 101.332L215.203 105.148ZM216.313 102.28V101.032H210.918V102.28H216.313ZM216.313 101.032C216.313 100.216 216.111 99.0088 215.1 98.0988L211.491 102.109C211.212 101.859 211.06 101.576 210.985 101.359C210.916 101.16 210.918 101.032 210.918 101.032H216.313ZM215.301 98.2993C214.414 97.3144 213.245 97.0863 212.399 97.0863V102.482C212.364 102.482 211.793 102.467 211.29 101.909L215.301 98.2993ZM212.399 97.0863H208.239V102.482H212.399V97.0863ZM232.579 92.68L230.114 91.5844L230.049 91.7304L230.002 91.8831L232.579 92.68ZM231.075 97.544L228.498 96.7471L227.417 100.242H231.075V97.544ZM236.099 97.544V100.242H239.757L238.676 96.7471L236.099 97.544ZM234.595 92.68L237.172 91.8831L237.125 91.7304L237.06 91.5844L234.595 92.68ZM234.307 92.264L232.399 94.1715L232.505 94.2772L232.622 94.3705L234.307 92.264ZM232.835 92.264L231.15 90.1575L231.033 90.2508L230.927 90.3564L232.835 92.264ZM230.467 108.744L228.559 106.836L230.467 108.744ZM224.003 108.744L221.987 110.536L222.092 110.655L222.211 110.76L224.003 108.744ZM224.035 97.192L221.422 96.522L221.414 96.5536L221.406 96.5854L224.035 97.192ZM224.995 94.28L227.513 95.2484L227.514 95.2454L224.995 94.28ZM227.779 87.016L230.298 87.9814L230.311 87.9478L230.323 87.9138L227.779 87.016ZM228.355 86.216L226.941 83.9185L226.899 83.9442L226.858 83.9714L228.355 86.216ZM239.011 86.216L237.514 88.4606L237.555 88.4878L237.597 88.5135L239.011 86.216ZM239.619 87.016L237.075 87.9138L237.087 87.9478L237.1 87.9814L239.619 87.016ZM242.403 94.28L239.884 95.2454L239.885 95.2484L242.403 94.28ZM243.331 97.192L240.702 97.7986L240.71 97.8304L240.718 97.862L243.331 97.192ZM243.363 108.744L245.27 110.652V110.652L243.363 108.744ZM236.707 108.744L234.799 110.652L234.905 110.757L235.022 110.851L236.707 108.744ZM236.419 103.368H239.117V100.67H236.419V103.368ZM230.755 103.368V100.67H228.057V103.368H230.755ZM230.002 91.8831L228.498 96.7471L233.652 98.3409L235.156 93.4769L230.002 91.8831ZM231.075 100.242H236.099V94.8463H231.075V100.242ZM238.676 96.7471L237.172 91.8831L232.018 93.4769L233.522 98.3409L238.676 96.7471ZM237.06 91.5844C236.885 91.1908 236.569 90.6191 235.992 90.1575L232.622 94.3705C232.429 94.2167 232.308 94.0651 232.241 93.9675C232.173 93.8694 232.14 93.7979 232.13 93.7756L237.06 91.5844ZM236.214 90.3565C235.59 89.7321 234.782 89.4383 233.987 89.4383V94.8337C233.747 94.8337 233.461 94.7926 233.161 94.6727C232.858 94.5516 232.602 94.3739 232.399 94.1715L236.214 90.3565ZM233.987 89.4383H233.187V94.8337H233.987V89.4383ZM233.187 89.4383C232.404 89.4383 231.7 89.7171 231.15 90.1575L234.52 94.3705C234.183 94.6403 233.714 94.8337 233.187 94.8337V89.4383ZM230.927 90.3564C230.496 90.7881 230.249 91.2801 230.114 91.5844L235.044 93.7756C235.051 93.7596 235.04 93.7886 235.004 93.8458C234.972 93.8979 234.89 94.0241 234.742 94.1716L230.927 90.3564ZM228.057 107.848C228.057 107.848 228.056 107.733 228.115 107.55C228.177 107.355 228.308 107.087 228.559 106.836L232.374 110.652C233.275 109.751 233.453 108.62 233.453 107.848H228.057ZM228.559 106.836C228.861 106.535 229.173 106.404 229.357 106.349C229.531 106.298 229.63 106.302 229.603 106.302V111.698C230.266 111.698 231.447 111.579 232.374 110.652L228.559 106.836ZM229.603 106.302H224.899V111.698H229.603V106.302ZM224.899 106.302C224.875 106.302 224.96 106.299 225.112 106.342C225.272 106.388 225.532 106.494 225.795 106.728L222.211 110.76C223.113 111.563 224.196 111.698 224.899 111.698V106.302ZM226.019 106.952C226.253 107.215 226.359 107.475 226.405 107.635C226.448 107.787 226.445 107.872 226.445 107.848H221.049C221.049 108.551 221.184 109.634 221.987 110.536L226.019 106.952ZM226.445 107.848V99.4H221.049V107.848H226.445ZM226.445 99.4C226.445 99.019 226.503 98.4933 226.663 97.7986L221.406 96.5854C221.183 97.5547 221.049 98.501 221.049 99.4H226.445ZM226.648 97.862C226.828 97.1613 227.111 96.2942 227.513 95.2484L222.477 93.3116C222.026 94.4844 221.669 95.5587 221.422 96.522L226.648 97.862ZM227.514 95.2454L230.298 87.9814L225.26 86.0506L222.476 93.3146L227.514 95.2454ZM230.323 87.9138C230.306 87.9619 230.191 88.234 229.851 88.4606L226.858 83.9714C226.007 84.5394 225.508 85.3447 225.235 86.1182L230.323 87.9138ZM229.769 88.5135C229.508 88.6739 229.332 88.6577 229.411 88.6577V83.2623C228.637 83.2623 227.756 83.4168 226.941 83.9185L229.769 88.5135ZM229.411 88.6577H238.019V83.2623H229.411V88.6577ZM238.019 88.6577C238.058 88.6577 237.822 88.6658 237.514 88.4606L240.507 83.9714C239.687 83.4248 238.79 83.2623 238.019 83.2623V88.6577ZM237.597 88.5135C237.444 88.4193 237.317 88.3004 237.223 88.1763C237.132 88.0566 237.091 87.958 237.075 87.9138L242.163 86.1182C241.868 85.2833 241.319 84.4689 240.425 83.9185L237.597 88.5135ZM237.1 87.9814L239.884 95.2454L244.922 93.3146L242.138 86.0506L237.1 87.9814ZM239.885 95.2484C240.283 96.2818 240.547 97.1268 240.702 97.7986L245.959 96.5854C245.731 95.5932 245.377 94.4968 244.921 93.3116L239.885 95.2484ZM240.718 97.862C240.893 98.5445 240.953 99.0479 240.953 99.4H246.349C246.349 98.4721 246.196 97.5035 245.944 96.522L240.718 97.862ZM240.953 99.4V107.848H246.349V99.4H240.953ZM240.953 107.848C240.953 107.848 240.952 107.733 241.011 107.55C241.073 107.355 241.204 107.087 241.455 106.836L245.27 110.652C246.171 109.751 246.349 108.62 246.349 107.848H240.953ZM241.455 106.836C241.757 106.535 242.069 106.404 242.253 106.349C242.427 106.298 242.526 106.302 242.499 106.302V111.698C243.162 111.698 244.343 111.579 245.27 110.652L241.455 106.836ZM242.499 106.302H237.667V111.698H242.499V106.302ZM237.667 106.302C237.625 106.302 237.681 106.297 237.802 106.329C237.928 106.363 238.152 106.445 238.392 106.637L235.022 110.851C235.917 111.566 236.952 111.698 237.667 111.698V106.302ZM238.614 106.836C238.865 107.087 238.996 107.355 239.059 107.55C239.118 107.733 239.117 107.848 239.117 107.848H233.721C233.721 108.62 233.899 109.751 234.799 110.652L238.614 106.836ZM239.117 107.848V103.368H233.721V107.848H239.117ZM236.419 100.67H230.755V106.066H236.419V100.67ZM228.057 103.368V107.848H233.453V103.368H228.057ZM249.17 107.4L247.443 109.472L247.451 109.479L247.46 109.486L249.17 107.4ZM249.17 87.592L250.897 89.6644L250.9 89.6616L249.17 87.592ZM263.794 86.248L261.778 88.0402L261.883 88.1588L262.002 88.2643L263.794 86.248ZM255.026 92.552L256.711 94.6585L256.753 94.6254L256.793 94.5906L255.026 92.552ZM255.026 102.536L253.341 104.643L253.385 104.678L253.431 104.711L255.026 102.536ZM263.794 103.176L261.778 104.968L261.883 105.087L262.002 105.192L263.794 103.176ZM263.794 108.744L265.701 110.652V110.652L263.794 108.744ZM262.93 106.302H255.122V111.698H262.93V106.302ZM255.122 106.302C252.736 106.302 251.488 105.812 250.88 105.314L247.46 109.486C249.455 111.121 252.174 111.698 255.122 111.698V106.302ZM250.897 105.328C250.42 104.93 249.948 104.173 249.948 102.472H244.552C244.552 105.209 245.359 107.736 247.443 109.472L250.897 105.328ZM249.948 102.472V92.52H244.552V102.472H249.948ZM249.948 92.52C249.948 90.8192 250.42 90.0615 250.897 89.6644L247.443 85.5196C245.359 87.2558 244.552 89.7834 244.552 92.52H249.948ZM250.9 89.6616C251.506 89.155 252.746 88.6577 255.122 88.6577V83.2623C252.165 83.2623 249.436 83.853 247.44 85.5224L250.9 89.6616ZM255.122 88.6577H262.93V83.2623H255.122V88.6577ZM262.93 88.6577C262.926 88.6577 262.895 88.6576 262.842 88.6502C262.789 88.6428 262.704 88.6269 262.597 88.5912C262.375 88.5171 262.059 88.3567 261.778 88.0402L265.81 84.4558C264.895 83.4257 263.667 83.2623 262.93 83.2623V88.6577ZM262.002 88.2643C261.685 87.9829 261.525 87.6674 261.451 87.4451C261.415 87.3382 261.399 87.2532 261.392 87.2C261.384 87.1467 261.384 87.1156 261.384 87.112H266.78C266.78 86.3752 266.616 85.1474 265.586 84.2317L262.002 88.2643ZM261.384 87.112V90.984H266.78V87.112H261.384ZM261.384 90.984C261.384 90.9838 261.383 90.8687 261.442 90.6865C261.504 90.4914 261.635 90.2235 261.886 89.9725L265.701 93.7875C266.602 92.8871 266.78 91.7557 266.78 90.984H261.384ZM261.886 89.9725C262.188 89.6713 262.5 89.5398 262.684 89.4855C262.858 89.4338 262.957 89.4383 262.93 89.4383V94.8337C263.593 94.8337 264.774 94.7153 265.701 93.7875L261.886 89.9725ZM262.93 89.4383H256.498V94.8337H262.93V89.4383ZM256.498 89.4383C255.535 89.4383 254.28 89.6284 253.259 90.5134L256.793 94.5906C256.599 94.7588 256.427 94.8193 256.368 94.836C256.316 94.8507 256.346 94.8337 256.498 94.8337V89.4383ZM253.341 90.4455C252.198 91.3598 251.848 92.6503 251.848 93.736H257.244C257.244 93.7365 257.244 93.7666 257.234 93.8204C257.225 93.8748 257.206 93.9557 257.166 94.0535C257.079 94.2668 256.926 94.4864 256.711 94.6585L253.341 90.4455ZM251.848 93.736V101.352H257.244V93.736H251.848ZM251.848 101.352C251.848 102.438 252.198 103.728 253.341 104.643L256.711 100.429C256.926 100.602 257.079 100.821 257.166 101.034C257.206 101.132 257.225 101.213 257.234 101.268C257.244 101.321 257.244 101.352 257.244 101.352H251.848ZM253.431 104.711C254.431 105.445 255.61 105.586 256.498 105.586V100.19C256.411 100.19 256.349 100.186 256.307 100.182C256.265 100.178 256.252 100.174 256.261 100.176C256.274 100.179 256.425 100.216 256.621 100.361L253.431 104.711ZM256.498 105.586H262.93V100.19H256.498V105.586ZM262.93 105.586C262.926 105.586 262.895 105.586 262.842 105.578C262.789 105.571 262.704 105.555 262.597 105.519C262.375 105.445 262.059 105.285 261.778 104.968L265.81 101.384C264.895 100.354 263.667 100.19 262.93 100.19V105.586ZM262.002 105.192C261.685 104.911 261.525 104.595 261.451 104.373C261.415 104.266 261.399 104.181 261.392 104.128C261.384 104.075 261.384 104.044 261.384 104.04H266.78C266.78 103.303 266.616 102.075 265.586 101.16L262.002 105.192ZM261.384 104.04V107.848H266.78V104.04H261.384ZM261.384 107.848C261.384 107.848 261.383 107.733 261.442 107.55C261.504 107.355 261.635 107.087 261.886 106.836L265.701 110.652C266.602 109.751 266.78 108.62 266.78 107.848H261.384ZM261.886 106.836C262.188 106.535 262.5 106.404 262.684 106.349C262.858 106.298 262.957 106.302 262.93 106.302V111.698C263.593 111.698 264.774 111.579 265.701 110.652L261.886 106.836ZM267.952 108.744L265.935 110.536L266.041 110.655L266.159 110.76L267.952 108.744ZM267.952 86.248L266.044 84.3405V84.3405L267.952 86.248ZM274.672 86.248L272.655 88.0402L272.761 88.1588L272.879 88.2643L274.672 86.248ZM274.96 94.472H272.262V97.1697H274.96V94.472ZM276.24 94.472V97.1697H277.997L278.707 95.5627L276.24 94.472ZM279.536 87.016L282.003 88.1067L282.028 88.0508L282.05 87.9938L279.536 87.016ZM280.144 86.216L281.503 88.5462L281.573 88.5055L281.64 88.4606L280.144 86.216ZM286.8 86.248L284.555 87.7444L284.597 87.8067L284.642 87.8666L286.8 86.248ZM286.768 87.016L289.239 88.0978L289.239 88.0973L286.768 87.016ZM283.504 94.472L281.032 93.3902L279.471 96.9575L283.359 97.1658L283.504 94.472ZM286.352 95.752L284.338 97.5476L284.364 97.5763L284.39 97.6043L286.352 95.752ZM287.152 108.744L289.059 110.652V110.652L287.152 108.744ZM280.464 108.744L278.447 110.536L278.553 110.655L278.671 110.76L280.464 108.744ZM274.96 100.52V97.8223H272.262V100.52H274.96ZM274.672 108.744L272.764 106.836L274.672 108.744ZM273.808 106.302H268.848V111.698H273.808V106.302ZM268.848 106.302C268.824 106.302 268.909 106.299 269.061 106.342C269.221 106.388 269.481 106.494 269.744 106.728L266.159 110.76C267.062 111.563 268.145 111.698 268.848 111.698V106.302ZM269.968 106.952C270.202 107.215 270.308 107.475 270.354 107.635C270.397 107.787 270.393 107.872 270.393 107.848H264.998C264.998 108.551 265.133 109.634 265.935 110.536L269.968 106.952ZM270.393 107.848V87.112H264.998V107.848H270.393ZM270.393 87.112C270.393 87.0846 270.398 87.184 270.346 87.3584C270.292 87.5416 270.16 87.8544 269.859 88.1555L266.044 84.3405C265.116 85.2682 264.998 86.4493 264.998 87.112H270.393ZM269.859 88.1555C269.608 88.4066 269.34 88.5375 269.145 88.6003C268.963 88.6588 268.848 88.6577 268.848 88.6577V83.2623C268.076 83.2623 266.945 83.44 266.044 84.3405L269.859 88.1555ZM268.848 88.6577H273.808V83.2623H268.848V88.6577ZM273.808 88.6577C273.804 88.6577 273.773 88.6576 273.72 88.6502C273.666 88.6428 273.581 88.6269 273.475 88.5912C273.252 88.5171 272.937 88.3567 272.655 88.0402L276.688 84.4558C275.772 83.4257 274.544 83.2623 273.808 83.2623V88.6577ZM272.879 88.2643C272.563 87.9829 272.402 87.6674 272.328 87.4451C272.293 87.3382 272.277 87.2532 272.269 87.2C272.262 87.1467 272.262 87.1156 272.262 87.112H277.657C277.657 86.3752 277.494 85.1474 276.464 84.2317L272.879 88.2643ZM272.262 87.112V94.472H277.657V87.112H272.262ZM274.96 97.1697H276.24V91.7743H274.96V97.1697ZM278.707 95.5627L282.003 88.1067L277.068 85.9253L273.772 93.3813L278.707 95.5627ZM282.05 87.9938C282.063 87.9596 281.946 88.2879 281.503 88.5462L278.784 83.8858C277.83 84.4428 277.307 85.3044 277.021 86.0382L282.05 87.9938ZM281.64 88.4606C281.332 88.6658 281.097 88.6577 281.136 88.6577V83.2623C280.364 83.2623 279.467 83.4248 278.647 83.9714L281.64 88.4606ZM281.136 88.6577H286.064V83.2623H281.136V88.6577ZM286.064 88.6577C286.027 88.6577 285.821 88.6555 285.537 88.5442C285.22 88.4204 284.84 88.1714 284.555 87.7444L289.044 84.7516C288.178 83.4525 286.793 83.2623 286.064 83.2623V88.6577ZM284.642 87.8666C284.261 87.3593 284.177 86.8195 284.192 86.4557C284.206 86.1345 284.292 85.9433 284.296 85.9347L289.239 88.0973C289.482 87.5431 290.007 86.0288 288.958 84.6294L284.642 87.8666ZM284.296 85.9342L281.032 93.3902L285.975 95.5538L289.239 88.0978L284.296 85.9342ZM283.359 97.1658C283.939 97.1969 284.177 97.3669 284.338 97.5476L288.365 93.9564C287.118 92.5584 285.458 91.8751 283.648 91.7782L283.359 97.1658ZM284.39 97.6043C284.547 97.7696 284.742 98.0786 284.742 98.824H290.137C290.137 97.0094 289.607 95.2704 288.313 93.8997L284.39 97.6043ZM284.742 98.824V107.848H290.137V98.824H284.742ZM284.742 107.848C284.742 107.848 284.741 107.733 284.799 107.55C284.862 107.355 284.993 107.087 285.244 106.836L289.059 110.652C289.96 109.751 290.137 108.62 290.137 107.848H284.742ZM285.244 106.836C285.545 106.535 285.858 106.404 286.041 106.349C286.216 106.298 286.315 106.302 286.288 106.302V111.698C286.95 111.698 288.131 111.579 289.059 110.652L285.244 106.836ZM286.288 106.302H281.36V111.698H286.288V106.302ZM281.36 106.302C281.336 106.302 281.421 106.299 281.573 106.342C281.733 106.388 281.993 106.494 282.256 106.728L278.671 110.76C279.574 111.563 280.657 111.698 281.36 111.698V106.302ZM282.48 106.952C282.714 107.215 282.82 107.475 282.866 107.635C282.909 107.787 282.905 107.872 282.905 107.848H277.51C277.51 108.551 277.645 109.634 278.447 110.536L282.48 106.952ZM282.905 107.848V101.608H277.51V107.848H282.905ZM282.905 101.608C282.905 100.827 282.705 99.8448 281.968 99.0158L277.935 102.6C277.54 102.155 277.51 101.707 277.51 101.608H282.905ZM281.968 99.0158C281.131 98.0745 280.029 97.8223 279.184 97.8223V103.218C279.108 103.218 278.924 103.208 278.684 103.118C278.429 103.022 278.16 102.853 277.935 102.6L281.968 99.0158ZM279.184 97.8223H274.96V103.218H279.184V97.8223ZM272.262 100.52V107.848H277.657V100.52H272.262ZM272.262 107.848C272.262 107.848 272.261 107.733 272.319 107.55C272.382 107.355 272.513 107.087 272.764 106.836L276.579 110.652C277.48 109.751 277.657 108.62 277.657 107.848H272.262ZM272.764 106.836C273.065 106.535 273.378 106.404 273.561 106.349C273.736 106.298 273.835 106.302 273.808 106.302V111.698C274.47 111.698 275.651 111.579 276.579 110.652L272.764 106.836ZM292.787 100.36L290.77 102.152L290.876 102.271L290.994 102.376L292.787 100.36ZM292.499 99.464L289.803 99.5688L289.804 99.5873L289.805 99.6058L292.499 99.464ZM292.019 87.112L294.714 87.0072L294.714 86.9887L294.713 86.9702L292.019 87.112ZM292.243 86.248L294.15 88.1555L294.206 88.0995L294.259 88.0402L292.243 86.248ZM300.083 86.248L298.066 88.0402L298.119 88.0995L298.175 88.1555L300.083 86.248ZM300.307 87.112L297.613 86.9702L297.612 86.9922L297.611 87.0142L300.307 87.112ZM299.859 99.464L302.553 99.6058L302.554 99.5838L302.555 99.5618L299.859 99.464ZM299.539 100.36L301.331 102.376L301.39 102.324L301.446 102.268L299.539 100.36ZM292.339 108.744L290.322 110.536L290.428 110.655L290.546 110.76L292.339 108.744ZM292.339 102.792L294.246 104.7L292.339 102.792ZM299.987 102.792L297.97 104.584L298.076 104.703L298.194 104.808L299.987 102.792ZM299.987 108.744L301.894 110.652V110.652L299.987 108.744ZM298.643 97.9183H293.683V103.314H298.643V97.9183ZM293.683 97.9183C293.659 97.9183 293.744 97.9147 293.896 97.9581C294.056 98.0038 294.316 98.1097 294.579 98.3437L290.994 102.376C291.897 103.179 292.98 103.314 293.683 103.314V97.9183ZM294.803 98.5678C295.016 98.8069 295.113 99.0358 295.155 99.1665C295.195 99.2925 295.194 99.3566 295.193 99.3222L289.805 99.6058C289.841 100.29 290.017 101.304 290.77 102.152L294.803 98.5678ZM295.194 99.3592L294.714 87.0072L289.323 87.2168L289.803 99.5688L295.194 99.3592ZM294.713 86.9702C294.712 86.95 294.722 87.0686 294.67 87.269C294.615 87.4829 294.476 87.8299 294.15 88.1555L290.335 84.3405C289.35 85.3254 289.289 86.5831 289.325 87.2538L294.713 86.9702ZM294.259 88.0402C293.978 88.3567 293.662 88.5171 293.44 88.5912C293.333 88.6269 293.248 88.6428 293.195 88.6502C293.141 88.6576 293.11 88.6577 293.107 88.6577V83.2623C292.37 83.2623 291.142 83.4257 290.226 84.4558L294.259 88.0402ZM293.107 88.6577H299.219V83.2623H293.107V88.6577ZM299.219 88.6577C299.215 88.6577 299.184 88.6576 299.131 88.6502C299.077 88.6428 298.992 88.6269 298.886 88.5912C298.663 88.5171 298.348 88.3567 298.066 88.0402L302.099 84.4558C301.183 83.4257 299.955 83.2623 299.219 83.2623V88.6577ZM298.175 88.1555C297.849 87.8299 297.711 87.4829 297.655 87.269C297.603 87.0686 297.614 86.95 297.613 86.9702L303.001 87.2538C303.036 86.5831 302.975 85.3254 301.99 84.3405L298.175 88.1555ZM297.611 87.0142L297.163 99.3662L302.555 99.5618L303.003 87.2098L297.611 87.0142ZM297.165 99.3222C297.161 99.3829 297.166 98.918 297.631 98.4525L301.446 102.268C302.296 101.418 302.513 100.356 302.553 99.6058L297.165 99.3222ZM297.746 98.3437C298.01 98.1097 298.27 98.0038 298.43 97.9581C298.582 97.9147 298.666 97.9183 298.643 97.9183V103.314C299.345 103.314 300.428 103.179 301.331 102.376L297.746 98.3437ZM299.123 106.302H293.235V111.698H299.123V106.302ZM293.235 106.302C293.211 106.302 293.296 106.299 293.448 106.342C293.608 106.388 293.868 106.494 294.131 106.728L290.546 110.76C291.449 111.563 292.532 111.698 293.235 111.698V106.302ZM294.355 106.952C294.589 107.215 294.695 107.475 294.741 107.635C294.784 107.787 294.78 107.872 294.78 107.848H289.385C289.385 108.551 289.52 109.634 290.322 110.536L294.355 106.952ZM294.78 107.848V103.656H289.385V107.848H294.78ZM294.78 103.656C294.78 103.629 294.785 103.728 294.733 103.902C294.679 104.086 294.547 104.398 294.246 104.7L290.431 100.884C289.503 101.812 289.385 102.993 289.385 103.656H294.78ZM294.246 104.7C293.995 104.951 293.727 105.082 293.532 105.144C293.35 105.203 293.235 105.202 293.235 105.202V99.8063C292.463 99.8063 291.332 99.984 290.431 100.884L294.246 104.7ZM293.235 105.202H299.123V99.8063H293.235V105.202ZM299.123 105.202C299.119 105.202 299.088 105.202 299.035 105.194C298.981 105.187 298.896 105.171 298.79 105.135C298.567 105.061 298.252 104.901 297.97 104.584L302.003 101C301.087 99.9697 299.859 99.8063 299.123 99.8063V105.202ZM298.194 104.808C297.878 104.527 297.717 104.211 297.643 103.989C297.608 103.882 297.592 103.797 297.584 103.744C297.577 103.691 297.577 103.66 297.577 103.656H302.972C302.972 102.919 302.809 101.691 301.779 100.776L298.194 104.808ZM297.577 103.656V107.848H302.972V103.656H297.577ZM297.577 107.848C297.577 107.848 297.576 107.733 297.634 107.55C297.697 107.355 297.828 107.087 298.079 106.836L301.894 110.652C302.795 109.751 302.972 108.62 302.972 107.848H297.577ZM298.079 106.836C298.38 106.535 298.693 106.404 298.876 106.349C299.051 106.298 299.15 106.302 299.123 106.302V111.698C299.785 111.698 300.966 111.579 301.894 110.652L298.079 106.836Z" fill="#333333" mask="url(#path-1-outside-1_484_18)"/>
</g>
<g clip-path="url(#clip0_484_18)">
<path d="M189.16 0.936279H143.84C141.685 0.936279 139.937 2.68429 139.937 4.84018V41.4819C139.937 43.6378 141.685 45.3858 143.84 45.3858H157.891L166.502 57.1807L175.113 45.3858H189.164C191.32 45.3858 193.068 43.6378 193.068 41.4819V4.84018C193.068 2.68429 191.32 0.936279 189.164 0.936279H189.16Z" fill="#EB6134"/>
<path d="M166.498 58.1131C166.198 58.1131 165.919 57.9716 165.74 57.7302L157.408 46.3224H143.84C141.173 46.3224 139 44.1498 139 41.482V4.84033C139 2.17253 141.173 0 143.84 0H189.164C191.832 0 194.004 2.17253 194.004 4.84033V41.482C194.004 44.1498 191.832 46.3224 189.164 46.3224H175.588L167.26 57.7302C167.085 57.9716 166.802 58.1131 166.502 58.1131H166.498ZM143.84 1.87287C142.205 1.87287 140.873 3.20469 140.873 4.84033V41.482C140.873 43.1177 142.205 44.4495 143.84 44.4495H157.891C158.191 44.4495 158.47 44.591 158.649 44.8324L166.502 55.591L174.356 44.8324C174.53 44.591 174.813 44.4495 175.113 44.4495H189.164C190.799 44.4495 192.131 43.1177 192.131 41.482V4.84033C192.131 3.20469 190.799 1.87287 189.164 1.87287H143.84Z" fill="#333333"/>
<path d="M166.498 36.4543C157.005 29.8701 151.807 25.2587 151.807 19.7316C151.807 15.4656 154.803 11.8364 159.148 11.8364C164.347 11.8364 166.494 16.6351 166.494 16.6351C166.494 16.6351 168.646 11.8364 173.84 11.8364C178.189 11.8364 181.186 15.4615 181.186 19.7316C181.186 25.2628 175.987 29.8743 166.49 36.4543H166.498Z" fill="#EBE1D8"/>
<path d="M166.498 37.3906C166.311 37.3906 166.124 37.3365 165.965 37.2242C156.177 30.4402 150.87 25.6415 150.87 19.7315C150.87 14.7788 154.508 10.8999 159.148 10.8999C163.019 10.8999 165.354 13.2347 166.494 14.8246C167.634 13.2389 169.969 10.8999 173.84 10.8999C178.485 10.8999 182.122 14.7788 182.122 19.7315C182.122 25.6373 176.816 30.436 167.027 37.2242C166.869 37.3365 166.681 37.3906 166.494 37.3906H166.498ZM159.152 12.7728C155.498 12.7728 152.747 15.7652 152.747 19.7315C152.747 24.7175 157.575 29.0876 166.502 35.3138C175.43 29.0876 180.262 24.7134 180.262 19.7315C180.262 15.7652 177.507 12.7728 173.852 12.7728C169.316 12.7728 167.381 16.9763 167.36 17.0179C167.21 17.3551 166.873 17.5715 166.507 17.5715C166.136 17.5715 165.803 17.3551 165.653 17.0179C165.574 16.8473 163.668 12.7728 159.161 12.7728H159.152Z" fill="#333333"/>
</g>
<defs>
<filter id="filter0_d_484_18" x="32.1572" y="85.48" width="270.879" height="28.0465" filterUnits="userSpaceOnUse" color-interpolation-filters="sRGB">
<feFlood flood-opacity="0" result="BackgroundImageFix"/>
<feColorMatrix in="SourceAlpha" type="matrix" values="0 0 0 0 0 0 0 0 0 0 0 0 0 0 0 0 0 0 127 0" result="hardAlpha"/>
<feOffset dx="2.69767" dy="4.04651"/>
<feComposite in2="hardAlpha" operator="out"/>
<feColorMatrix type="matrix" values="0 0 0 0 0.2 0 0 0 0 0.2 0 0 0 0 0.2 0 0 0 1 0"/>
<feBlend mode="normal" in2="BackgroundImageFix" result="effect1_dropShadow_484_18"/>
<feBlend mode="normal" in="SourceGraphic" in2="effect1_dropShadow_484_18" result="shape"/>
</filter>
<clipPath id="clip0_484_18">
<rect width="55" height="58.1131" fill="white" transform="translate(139)"/>
</clipPath>
</defs>
</svg>
